<svg width="934" height="934" viewBox="0 0 934 934" fill="none" xmlns="http://www.w3.org/2000/svg">
<g style="mix-blend-mode:overlay">
<path d="M447.604 32.8243H543.092L593.821 41.7764L638.581 56.6965L671.406 74.6007L716.166 104.441L757.942 134.281L793.751 167.105L823.591 202.914L847.463 250.658L859.399 298.403L865.367 319.291L880.287 346.147L886.255 367.035L889.239 405.828L898.191 432.684V507.284L889.239 552.045L871.335 593.821L859.399 620.677L847.463 641.566L850.447 659.47V695.278L841.495 722.134L823.591 746.006L802.703 763.911H814.639L808.671 775.847L781.814 793.751L778.83 802.703L746.006 820.607L725.118 829.559L683.342 862.383L638.581 886.256L590.837 901.176L546.076 910.128L504.3 913.112H471.476L426.715 910.128L399.859 904.16L402.843 892.224L417.763 868.352L423.731 850.447L370.019 865.368L334.211 880.288H322.275L313.322 853.431L298.402 787.783L283.482 763.911L265.578 754.959H259.61L283.482 766.895V772.863L253.642 769.879L235.738 757.943L220.818 740.038L217.834 728.102V689.31L220.818 680.358L179.041 677.374L140.249 671.406L122.345 659.47L113.393 632.614L119.361 602.773L113.393 590.837L98.4727 575.917L101.457 558.013L107.425 546.077L98.4727 522.205L101.457 504.3L113.393 492.364H119.361L116.377 477.444L104.441 462.524L98.4727 453.572V429.7L113.393 414.78L140.249 396.875L134.281 384.939V375.987L131.297 358.083H137.265L152.185 373.003L149.201 361.067L155.169 358.083L164.121 370.019H170.089L164.121 352.115V328.243L176.057 298.403L185.009 241.706L196.945 202.914L214.85 167.105L223.802 152.185L217.834 149.201V143.233L244.69 131.297L247.674 119.361L280.498 92.5049L322.275 71.6167L364.051 59.6806L396.875 44.7604L447.604 32.8243ZM820.607 695.278L802.703 710.198L793.751 740.038L775.846 763.911L778.83 769.879L796.735 754.959V748.991H802.703L820.607 719.15L823.591 695.278H820.607Z" fill="#010101"/>
<path d="M447.604 32.8243H543.092L593.821 41.7764L638.581 56.6965L671.406 74.6007L716.166 104.441L757.942 134.281L793.751 167.105L823.591 202.914L847.463 250.658L859.399 298.403L865.367 319.291L880.287 346.147L886.255 367.035L889.239 405.828L898.191 432.684V456.556L895.207 471.476H889.239L886.255 483.412L871.335 501.316L856.415 537.125L829.559 587.853L808.671 611.725L781.814 626.645H757.942L763.91 614.709L769.878 602.773L751.974 611.725L746.006 608.741L772.862 587.853L787.783 566.965L772.862 572.933H760.926V560.997L754.958 569.949H748.99V575.917L716.166 596.805L686.326 605.757H635.597L602.773 593.821V590.837L665.437 584.869L701.246 569.949L716.166 558.013L713.182 549.061V543.093L677.374 560.997L668.422 563.981H620.677L590.837 552.045L560.997 528.173L537.124 504.3L510.268 462.524L498.332 429.7L492.364 411.796L486.396 378.971V313.323L489.38 298.403H492.364L498.332 361.067L504.3 396.875L525.188 450.588L540.108 474.46L534.14 456.556L546.076 468.492L552.045 474.46L528.172 426.716L522.204 405.828V390.907L528.172 396.875L543.092 435.668L560.997 465.508L587.853 495.348L614.709 513.252L638.581 522.205H677.374L737.054 504.3L766.894 489.38L784.799 462.524V453.572L769.878 459.54L766.894 432.684L743.022 405.828L716.166 358.083L704.23 328.243V319.291L754.958 316.307L734.07 283.483L704.23 238.722L701.246 232.754L689.31 235.738L668.422 259.61H662.453L647.533 223.802V214.85L614.709 226.786L602.773 232.754L593.821 259.61L575.917 298.403L560.997 292.435L522.204 259.61L513.252 253.642L510.268 244.69L507.284 182.026L471.476 134.281L441.636 98.4729V92.5049H471.476L501.316 104.441L522.204 119.361H528.172L534.14 77.5847L540.108 41.7764L486.396 65.6486L438.652 89.5208L423.731 83.5528L381.955 56.6965V50.7285L420.747 38.7924L447.604 32.8243Z" fill="#6F6F6F"/>
<path d="M304.37 164.121H325.259L343.163 176.057L361.067 211.866L381.955 244.69L375.987 256.626L373.003 268.562L375.987 277.514H370.019L384.939 307.355L408.811 328.243L435.668 361.067L459.54 399.859L474.46 429.7L477.444 456.556L492.364 459.54L504.3 477.444V495.348L495.348 510.268L501.316 516.236L498.332 531.157L492.364 537.125H483.412V546.077H477.444V540.109L465.508 537.125L456.556 528.172L450.588 504.3L438.652 519.22L405.827 546.077L370.019 572.933L325.259 599.789L265.578 623.661L211.866 641.565L170.089 650.518H137.265L113.393 638.581L119.361 602.773L113.393 590.837L98.4727 575.917L101.457 558.013L107.425 546.077L98.4727 522.204L101.457 504.3L113.393 492.364H119.361L122.345 483.412L140.249 471.476L176.057 468.492L179.041 462.524V435.668L167.105 444.62H146.217L119.361 435.668L122.345 423.732L146.217 411.795L161.137 393.891L190.977 375.987L211.866 370.019V378.971L235.738 375.987L256.626 370.019L271.546 367.035L262.594 358.083L274.53 355.099L253.642 340.179L256.626 349.131L229.77 340.179V334.211L241.706 337.195L247.674 340.179V334.211L232.754 325.259L229.77 307.355L238.722 301.387H265.578L286.466 310.339L265.578 298.402L259.61 295.418H226.786L205.898 301.387L202.914 277.514V250.658L226.786 217.834L256.626 187.994L283.482 170.089L304.37 164.121Z" fill="#828282"/>
<path d="M477.444 552.045H483.412V558.013L492.364 560.997L489.38 572.933H483.412V578.901L504.3 581.885L510.268 590.837L513.252 605.757L519.22 596.805L528.172 599.789L537.124 617.693L540.108 638.581L552.045 662.454L566.965 716.166L575.917 751.974L584.869 769.879L611.725 811.655L632.613 856.415L635.597 886.256L590.837 901.176L546.077 910.128L504.3 913.112H471.476L426.716 910.128L399.859 904.16L402.843 892.224L417.763 868.351L423.731 850.447L370.019 865.367L334.211 880.288H322.275L319.291 865.367L334.211 850.447L331.227 838.511L313.323 811.655L307.354 784.799V746.006L322.275 707.214L343.163 680.358L364.051 662.454L373.003 659.47V665.438L399.859 650.518L420.747 608.741L444.62 578.901L456.556 566.965H462.524L465.508 578.901L468.492 563.981L474.46 560.997L477.444 552.045Z" fill="#878787"/>
<path d="M447.604 32.8243H543.092L593.821 41.7764L638.581 56.6965L671.406 74.6007L716.166 104.441L757.942 134.281L793.751 167.105L820.607 199.93L817.623 205.898L805.687 199.93L796.735 196.946L787.783 232.754L763.91 313.323L754.958 316.307L734.07 283.482L704.23 238.722L701.246 232.754L689.31 235.738L668.422 259.61H662.453L647.533 223.802V214.85L614.709 226.786L602.773 232.754L593.821 259.61L575.917 298.403L560.997 292.435L522.204 259.61L513.252 253.642L510.268 244.69L507.284 182.026L471.476 134.281L441.636 98.4729V92.5048H471.476L501.316 104.441L522.204 119.361H528.172L534.14 77.5847L540.108 41.7764L486.396 65.6486L438.652 89.5208L423.731 83.5528L381.955 56.6965V50.7285L420.747 38.7924L447.604 32.8243Z" fill="#747474"/>
<path d="M531.156 41.7764H540.108V65.6486L534.14 92.5048L531.156 119.361H519.22L495.348 104.441L471.476 95.4888L441.636 92.5048L474.46 134.281L510.268 182.026L513.252 250.658L462.524 238.722L420.747 235.738L438.652 265.578L408.811 259.61L390.907 256.626L399.859 274.53L384.939 268.562L373.003 262.594L370.019 268.562L373.003 256.626L378.971 244.69L346.147 190.978L340.179 176.058L325.259 167.105H304.37L280.498 176.058L253.642 193.962L223.802 223.802L205.898 250.658V301.387L226.786 292.434H259.61L283.482 304.371L289.45 313.323L274.53 307.355L265.578 304.371H238.722L232.754 307.355V325.259L247.674 331.227L250.658 343.163L229.77 334.211L232.754 340.179L253.642 346.147V340.179L265.578 346.147L277.514 358.083L268.562 361.067L277.514 367.035L256.626 373.003L226.786 381.955H211.866L208.882 373.003L173.073 387.923L155.169 402.843L143.233 417.764L122.345 426.716L119.361 435.668L146.217 441.636H173.073L179.041 429.7L182.025 435.668V462.524L176.057 471.476L140.249 474.46L128.313 483.412L116.377 477.444L104.441 462.524L98.4727 453.572V429.7L113.393 414.78L140.249 396.875L134.281 384.939V375.987L131.297 358.083H137.265L152.185 373.003L149.201 361.067L155.169 358.083L164.121 370.019H170.089L164.121 352.115V328.243L176.057 298.403L185.009 241.706L196.945 202.914L214.85 167.105L223.802 152.185L217.834 149.201V143.233L244.69 131.297L247.674 119.361L280.498 92.5048L322.275 71.6166L364.051 59.6805L381.955 53.7125L432.683 86.5367L450.588 80.5687L498.332 56.6965L531.156 41.7764Z" fill="#040404"/>
<path d="M304.371 164.121H325.259L343.163 176.057L361.067 211.866L381.955 244.69L375.987 256.626L373.003 268.562L375.987 277.514H370.019L390.907 328.243L399.86 367.035V378.971L337.195 414.779L280.499 435.668L259.61 441.636H235.738L205.898 498.332L196.946 513.252L173.074 510.268V531.156L149.201 519.22L113.393 495.348L119.361 492.364L122.345 483.412L140.249 471.476L176.058 468.492L179.042 462.524V435.668L167.106 444.62H146.217L119.361 435.668L122.345 423.732L146.217 411.795L161.137 393.891L190.978 375.987L211.866 370.019V378.971L235.738 375.987L256.626 370.019L271.546 367.035L262.594 358.083L274.53 355.099L253.642 340.179L256.626 349.131L229.77 340.179V334.211L241.706 337.195L247.674 340.179V334.211L232.754 325.259L229.77 307.355L238.722 301.387H265.578L286.467 310.339L265.578 298.402L259.61 295.418H226.786L205.898 301.387L202.914 277.514V250.658L226.786 217.834L256.626 187.994L283.483 170.089L304.371 164.121Z" fill="#C5C5C5"/>
<path d="M453.572 617.693L456.556 623.661L444.62 674.39V689.31L468.492 668.422H477.444L501.316 707.214L498.332 722.134L489.38 728.102L474.46 725.118L444.62 701.246V737.054L456.556 766.895L495.348 844.479V856.415L468.492 889.24L450.588 910.128H426.716L399.859 904.16L402.843 892.224L417.763 868.351L423.731 850.447L370.019 865.367L334.211 880.288H322.275L319.291 865.367L334.211 850.447L331.227 838.511L313.323 811.655L307.354 784.799V746.006L322.275 707.214L343.163 680.358L364.051 662.454L373.003 659.47V665.438L435.668 629.629L453.572 617.693Z" fill="#707070"/>
<path d="M638.582 214.85H647.534L662.454 253.642V259.61H668.422L674.39 247.674L695.278 229.77V411.796L677.374 396.875L653.502 355.099L650.518 370.019V411.796L659.47 441.636L674.39 465.508L680.358 471.476L698.262 468.492L731.086 453.572L725.118 465.508L710.198 480.428L674.39 492.364H641.566L626.645 489.38L629.629 495.348L611.725 489.38L584.869 468.492L563.981 438.652L540.109 390.907L522.205 337.195L513.252 280.498V253.642L528.173 262.594L569.949 295.419L575.917 298.403L581.885 280.498L602.773 232.754L626.645 217.834L638.582 214.85Z" fill="#555555"/>
<path d="M540.108 32.8243L581.885 38.7924L629.629 53.7125L671.406 74.6007L716.166 104.441L757.942 134.281L772.862 149.201L787.783 176.058L796.735 193.962L722.134 220.818L707.214 226.786L692.294 223.802L674.39 214.85L644.549 211.866L641.565 185.01L629.629 149.201L617.693 131.297L590.837 113.393L575.917 98.4729L540.108 38.7924V32.8243Z" fill="#C9C9C9"/>
<path d="M531.157 41.7764H540.109V65.6486L534.141 92.5048L531.157 119.361H519.221L495.348 104.441L471.476 95.4888L441.636 92.5048L474.46 134.281L510.269 182.026L513.253 250.658L462.524 238.722L420.748 235.738L438.652 265.578L408.812 259.61L390.907 256.626L399.86 274.53L384.939 268.562L373.003 262.594L370.019 268.562L373.003 256.626L378.971 244.69L346.147 190.978L343.163 170.089H355.099L349.131 161.137V149.201H358.083L375.987 196.946L381.955 205.898V149.201L396.876 143.233H411.796L408.812 131.297H435.668L450.588 143.233L438.652 107.425L435.668 89.5208L450.588 80.5687L498.332 56.6965L531.157 41.7764Z" fill="#2F2F2F"/>
<path d="M477.444 552.045H483.412V558.013L492.364 560.997L489.38 572.933H483.412V578.901L504.3 581.885L510.268 590.837L513.252 605.757L519.22 596.805L528.172 599.789L537.124 617.693L540.108 638.581L552.045 662.454L566.965 716.166L575.917 751.974L578.901 766.895L543.092 757.942H471.476L450.588 760.926L441.636 737.054V698.262L456.556 707.214L480.428 725.118L492.364 722.134L498.332 719.15L495.348 701.246L477.444 674.39V668.422L462.524 677.374L441.636 692.294L444.62 659.47L453.572 620.677L405.827 650.518L402.843 644.549L420.747 608.741L444.62 578.901L456.556 566.965H462.524L465.508 578.901L468.492 563.981L474.46 560.997L477.444 552.045Z" fill="#6E6E6E"/>
<path d="M381.955 307.355L396.875 316.307L429.699 352.115L456.556 393.891L474.46 429.7L477.444 456.556L492.364 459.54L504.3 477.444V495.348L495.348 510.268L501.316 516.236L498.332 531.157L492.364 537.125H483.412V546.077H477.444V540.109L465.508 537.125L456.556 528.172L450.588 504.3L438.652 519.22L405.827 546.077L393.891 552.045L387.923 534.141L384.939 516.236V462.524L390.907 420.748L396.875 390.907V367.035L384.939 319.291L381.955 307.355Z" fill="#6C6C6C"/>
<path d="M307.355 361.067H316.307L331.227 396.875L334.211 411.796L322.275 420.748L259.61 441.636H235.738L205.898 498.332L196.946 513.252L173.074 510.268V531.157L149.201 519.221L113.393 495.348L119.361 492.364L122.345 483.412L140.249 471.476L176.058 468.492L179.042 462.524V435.668L167.106 444.62H146.217L119.361 435.668L122.345 423.732L146.217 411.796L161.137 393.891L190.978 375.987L211.866 370.019L214.85 381.955L217.834 393.891L232.754 390.907L247.674 378.971L307.355 361.067Z" fill="#C7C7C7"/>
<path d="M704.23 319.291H772.863L856.415 325.259V355.099L844.479 402.843L829.559 438.652L805.687 471.476L796.735 480.428L772.863 486.396L787.783 453.572L778.831 456.556L769.879 459.54L766.895 432.684L743.022 405.828L716.166 358.083L704.23 328.243V319.291Z" fill="#606060"/>
<path d="M450.588 760.927L459.54 772.863L495.349 844.479V856.415L468.492 889.24L450.588 910.128H426.716L399.86 904.16L402.844 892.224L417.764 868.352L423.732 850.447L370.019 865.367L334.211 880.288H322.275L319.291 865.367L340.179 844.479L355.099 826.575L402.844 793.751L450.588 760.927Z" fill="#CCCCCC"/>
<path d="M199.93 256.626H202.914L205.898 277.514V301.387L226.786 292.435H259.61L283.482 304.371L289.45 313.323L274.53 307.355L265.578 304.371H238.722L232.754 307.355V325.259L247.674 331.227L250.658 343.163L229.77 334.211L232.754 340.179L253.642 346.147V340.179L265.578 346.147L277.514 358.083L268.562 361.067L277.514 367.035L256.626 373.003L226.786 381.955H211.866L208.882 373.003L173.073 387.923L155.169 402.843L143.233 417.764L122.345 426.716L119.361 435.668L146.217 441.636H173.073L179.041 429.7L182.025 435.668V462.524L176.057 471.476L140.249 474.46L128.313 483.412L116.377 477.444L104.441 462.524L98.4727 453.572V429.7L113.393 414.78L140.249 396.875L134.281 384.939V375.987L131.297 358.083H137.265L152.185 373.003L149.201 361.067L155.169 358.083L164.121 370.019H170.089L164.121 352.115V328.243L176.057 298.403L179.041 292.435H185.009L190.977 274.53L199.93 256.626Z" fill="#A7A7A7"/>
<path d="M489.38 298.403H492.364L498.332 361.067L504.3 396.875L525.188 450.588L540.108 474.46L534.14 456.556L546.077 468.492L552.045 474.46L528.172 426.716L522.204 405.827V390.907L528.172 396.875L543.092 435.668L560.997 465.508L587.853 495.348L614.709 513.252L638.581 522.204L686.326 528.173L722.134 534.141L719.15 540.109L677.374 560.997L668.422 563.981H620.677L590.837 552.045L560.997 528.173L537.124 504.3L510.268 462.524L498.332 429.7L492.364 411.796L486.396 378.971V313.323L489.38 298.403Z" fill="#3D3D3D"/>
<path d="M334.211 417.764H340.179L364.051 477.444L390.907 543.093L393.892 555.029L361.067 578.901L325.259 599.789L289.451 614.709H280.499L286.467 596.805L298.403 566.965L310.339 525.188L334.211 417.764Z" fill="#9B9B9B"/>
<path d="M796.735 196.946L808.671 199.93L823.591 202.914L847.463 250.658L859.399 298.403L862.383 319.291L859.399 340.179H856.415V325.259L772.863 322.275L757.942 319.291L784.799 232.754L796.735 196.946Z" fill="#717171"/>
<path d="M692.294 229.77H695.278V411.796L677.374 396.875L653.501 355.099L650.517 370.019V411.796L659.469 441.636L674.39 465.508L680.358 474.46L662.453 468.492L641.565 447.604L626.645 414.78L623.661 390.907L644.549 337.195L647.533 292.435L662.453 262.594L689.31 232.754L692.294 229.77Z" fill="#2F2F2F"/>
<path d="M531.157 41.7764H540.109V65.6486L534.141 92.5048L531.157 119.361H519.221L495.348 104.441L471.476 95.4888L441.636 92.5048L474.46 134.281L510.269 182.026L513.253 250.658L504.301 247.674L462.524 185.01L435.668 140.249L441.636 137.265L450.588 140.249L438.652 107.425L435.668 89.5208L450.588 80.5687L498.332 56.6965L531.157 41.7764Z" fill="#535353"/>
<path d="M692.294 92.5048L707.214 98.4728L746.006 125.329L772.863 146.217L778.831 161.137L796.735 190.978L790.767 196.946L707.214 226.786L695.278 223.802L698.262 217.834V128.313L692.294 92.5048Z" fill="#A4A4A4"/>
<path d="M304.371 164.121H325.259L343.163 176.057L361.067 211.866L381.955 244.69L375.987 256.626L373.003 268.562L375.987 277.514H370.019L375.987 298.402L361.067 289.45L340.179 274.53L343.163 265.578L358.083 259.61H367.035L337.195 220.818V214.85L310.339 235.738L295.419 232.754L277.514 226.786H220.818L238.722 205.898L268.562 179.041L292.434 167.105L304.371 164.121Z" fill="#9F9F9F"/>
<path d="M226.786 223.802H277.514L298.402 232.754L307.354 244.69L319.291 271.546V277.514L304.37 274.53L301.386 310.339L295.418 316.307L274.53 301.387L259.61 295.418H226.786L205.898 301.387L202.914 277.514V250.658L220.818 226.786L226.786 223.802Z" fill="#D8D8D8"/>
<path d="M525.188 555.029L537.125 566.965L558.013 590.837L581.885 614.709L623.661 641.565L662.454 656.486L704.23 659.47L701.246 665.438L740.038 671.406L731.086 680.358L692.294 692.294H650.518L620.677 683.342L590.837 665.438L558.013 632.613L540.109 602.773L525.188 566.965V555.029Z" fill="#363636"/>
<path d="M393.891 653.502H399.859L390.907 683.342L367.035 748.99L358.083 766.894L334.211 787.783L319.291 802.703L313.323 811.655L307.354 784.799V746.006L322.275 707.214L343.163 680.358L364.051 662.454L373.003 659.47V665.438L393.891 653.502Z" fill="#6D6D6D"/>
<path d="M453.572 617.693L456.556 623.661L444.62 674.39V689.31L468.492 668.422H477.444L501.316 707.214V713.182L486.396 710.198L450.588 698.262L435.668 701.246L402.844 728.102L370.019 754.958L364.051 757.942L367.035 743.022L399.86 650.518L453.572 617.693Z" fill="#BDBDBD"/>
<path d="M110.409 495.348L122.345 498.332L170.089 528.172V507.284L196.945 510.268L199.93 504.3L208.882 507.284L211.866 519.22L208.882 525.188L220.818 531.157L217.834 549.061L205.898 578.901H193.961L176.057 555.029L161.137 558.013L104.441 560.997L107.425 546.077L98.4727 522.204L101.457 504.3L110.409 495.348Z" fill="#A6A6A6"/>
<path d="M513.252 253.642L528.173 262.594L572.933 298.402L569.949 346.147L563.981 432.684L555.029 423.732L537.125 381.955L522.205 337.195L513.252 280.498V253.642Z" fill="#2D2D2D"/>
<path d="M346.147 65.6486H355.099L364.051 89.5208L361.067 119.361L358.083 137.265L349.131 128.313V122.345H343.163V131.297L328.243 125.329H322.275L328.243 137.265L307.354 131.297L319.291 146.217L262.594 149.201L265.578 143.233L298.402 137.265L244.69 128.313L250.658 116.377L280.498 92.5048L322.275 71.6166L346.147 65.6486Z" fill="#595959"/>
<path d="M525.189 125.329L537.125 131.297L558.013 164.121L578.901 205.898L599.789 235.738V241.706L566.965 259.61L558.013 256.626L528.173 211.866L513.252 190.978L516.236 164.121L525.189 125.329Z" fill="#8B8B8B"/>
<path d="M307.354 361.067H316.306L331.227 396.875L334.211 411.796L322.275 420.748L259.61 441.636H235.738L238.722 423.732L250.658 396.875V378.971L295.418 364.051L307.354 361.067Z" fill="#FAFAFA"/>
<path d="M581.885 107.425L611.725 122.345L629.629 143.233L632.613 161.137L611.725 226.786L608.741 232.754H602.773L599.789 238.722L566.965 190.978L578.901 131.297L581.885 107.425Z" fill="#7B7B7B"/>
<path d="M349.131 149.201H358.083L375.987 196.946L381.955 205.898V149.201H393.892L408.812 208.882L429.7 250.658L438.652 265.578L408.812 259.61L390.907 256.626L399.86 274.53L384.939 268.562L373.003 262.594L370.019 268.562L373.003 256.626L378.971 244.69L346.147 190.978L343.163 170.089H355.099L349.131 161.137V149.201Z" fill="#353535"/>
<path d="M865.367 504.3L868.351 510.268L856.415 537.125L829.559 587.853L808.671 611.725L781.815 626.645H757.942L763.91 614.709L769.879 602.773L751.974 611.725L746.006 608.741L772.863 587.853L787.783 566.965V560.997L820.607 540.109L865.367 504.3Z" fill="#4A4A4A"/>
<path d="M301.386 289.45H304.37L313.322 343.163L316.306 361.067L247.674 381.955L232.754 393.891L217.834 396.875L214.85 381.955L247.674 373.003L262.594 370.019L271.546 367.035L262.594 358.083L274.53 355.099L253.642 340.179L256.626 349.131L229.77 340.179V334.211L241.706 337.195L247.674 340.179V334.211L232.754 325.259L229.77 307.355L238.722 301.387H265.578L283.482 310.339L295.418 313.323L298.402 310.339L301.386 289.45Z" fill="#7B7B7B"/>
<path d="M581.885 769.879L593.821 781.815L620.677 829.559L635.598 868.351V886.256L590.837 901.176H575.917L581.885 856.415V769.879Z" fill="#676767"/>
<path d="M393.891 378.971H399.86L396.875 402.844L390.907 432.684L387.923 462.524V516.236L390.907 543.093L381.955 531.157L352.115 456.556L340.179 423.732V417.764L334.211 414.78L358.083 399.859L393.891 378.971Z" fill="#828282"/>
<path d="M441.636 698.262L456.556 707.214L480.428 725.118L492.364 722.134L501.316 716.166L516.236 719.15L555.029 740.038L575.917 757.943L578.901 766.895L543.093 757.943H471.476L450.588 760.927L441.636 737.054V698.262Z" fill="#2F2F2F"/>
<path d="M704.23 319.291H760.926L769.879 408.812V432.684L751.974 417.764L725.118 375.987L710.198 343.163L704.23 328.243V319.291Z" fill="#3D3D3D"/>
<path d="M226.786 292.435H259.61L283.482 304.371L289.45 313.323L274.53 307.355L265.578 304.371H238.722L232.754 307.355V325.259L247.674 331.227L250.658 343.163L229.77 334.211L232.754 340.179L253.642 346.147V340.179L265.578 346.147L277.514 358.083L268.562 361.067L277.514 367.035L256.626 373.003L226.786 381.955H214.85L211.866 361.067L199.929 355.099L205.898 349.131L193.961 334.211V316.307L208.882 301.387L226.786 292.435Z" fill="#0E0E0E"/>
<path d="M161.138 578.901L190.978 581.885L199.93 584.869L193.962 614.709L185.01 647.534L170.09 650.518H137.265L122.345 626.645L128.313 614.709L161.138 578.901Z" fill="#BDBDBD"/>
<path d="M743.022 125.329L760.926 137.265L772.863 149.201L787.783 176.058L796.735 193.962L722.134 220.818L704.23 223.802L725.118 190.978L737.054 161.137L743.022 125.329Z" fill="#BEBEBE"/>
<path d="M531.157 41.7764H540.109V65.6486L534.141 92.5048L531.157 119.361H519.22L495.348 104.441L459.54 92.5048L441.636 89.5208V83.5527L525.188 44.7604L531.157 41.7764Z" fill="#424242"/>
<path d="M510.269 190.978L522.205 196.946L543.093 229.77L560.997 256.626L575.917 250.658L593.821 241.706L599.789 244.69L575.917 298.403L560.997 292.435L522.205 259.61L513.253 253.642L510.269 244.69V190.978Z" fill="#868686"/>
<path d="M519.22 596.805L528.172 599.789L537.125 617.693L540.109 638.582L552.045 662.454L558.013 689.31L504.3 713.182L510.268 605.757L519.22 596.805Z" fill="#3D3D3D"/>
<path d="M167.105 552.045L179.041 555.029L199.93 581.885L190.977 584.869L161.137 581.885L125.329 620.677L131.297 635.597L137.265 647.534L122.345 644.549L113.393 638.581L119.361 602.773L113.393 590.837L98.4727 575.917L101.457 558.013L161.137 555.029L167.105 552.045Z" fill="#CFCFCF"/>
<path d="M477.444 552.045H483.412V558.013L492.364 560.997L489.38 572.933H483.412V578.901L495.348 581.885V599.789L486.396 608.741L471.476 605.757L465.508 602.773L459.54 620.677L444.62 626.645L402.843 650.518L408.811 629.629L429.699 596.805L456.556 566.965H462.524L465.508 578.901L468.492 563.981L474.46 560.997L477.444 552.045Z" fill="#898989"/>
<path d="M438.652 695.278L459.54 698.262L501.316 713.182L498.332 722.134L489.38 728.102L474.46 725.118L444.62 701.246V737.054L450.588 763.911L447.604 757.943H367.035L378.971 743.022L408.812 719.15L438.652 695.278Z" fill="#7F7F7F"/>
<path d="M179.042 465.508H187.994L202.914 495.348L199.93 510.268L187.994 513.252L173.074 510.268V531.157L149.201 519.22L113.393 495.348L119.361 492.364L122.345 483.412L140.249 471.476L176.058 468.492L179.042 465.508Z" fill="#F9F9F9"/>
<path d="M298.402 238.722H304.37L316.306 265.578L319.291 277.514L304.37 274.53L301.386 310.339L295.418 316.307L274.53 301.387L259.61 295.419V289.45H235.738L250.658 262.594L256.626 256.626L286.466 244.69L298.402 238.722Z" fill="#F9F9F9"/>
<path d="M304.371 164.121H325.259L343.163 176.057L361.067 211.866L381.955 244.69L375.987 256.626L373.003 268.562L375.987 277.514H370.019L375.987 298.402L361.067 289.45L340.179 274.53L343.163 265.578L358.083 259.61H367.035L337.195 220.818L319.291 185.01V179.041L283.482 173.073L292.434 167.105L304.371 164.121Z" fill="#A5A5A5"/>
<path d="M190.977 375.987H202.914L196.946 399.859L187.993 417.764L173.073 426.716L176.057 435.668L167.105 444.62H146.217L119.361 435.668L122.345 423.732L146.217 411.795L161.137 393.891L190.977 375.987Z" fill="#CDCDCD"/>
<path d="M632.613 155.169L638.581 164.121L644.55 185.01V211.866H674.39L692.294 220.818V232.754L671.406 253.642L668.422 259.61H662.454L647.534 223.802V214.85L614.709 226.786L608.741 223.802L632.613 155.169Z" fill="#909090"/>
<path d="M587.853 301.387L608.741 304.371L632.613 319.291L644.55 328.243V304.371H647.534V337.195L626.645 390.907H620.677L593.821 319.291L587.853 301.387Z" fill="#474747"/>
<path d="M176.058 429.7L182.026 435.668V462.524L176.058 471.476L140.249 474.46L128.313 483.412L116.377 477.444L104.441 462.524L101.457 450.588L119.361 435.668L146.217 441.636H173.074L176.058 429.7Z" fill="#7C7C7C"/>
<path d="M447.604 32.8243H465.508L459.54 47.7445L444.62 74.6007L438.652 89.5208L423.731 83.5528L381.955 56.6965V50.7285L420.747 38.7924L447.604 32.8243Z" fill="#9A9A9A"/>
<path d="M110.409 495.348L122.345 498.332L170.089 528.172L182.025 531.157L190.977 543.093H122.345L107.425 546.077L98.4727 522.204L101.457 504.3L110.409 495.348Z" fill="#7F7F7F"/>
<path d="M859.399 319.291H865.367L880.288 346.147L886.256 367.035V399.859L874.319 423.732H868.351L853.431 396.875L850.447 393.891L853.431 355.099L859.399 319.291Z" fill="#A6A6A6"/>
<path d="M316.307 719.15L319.291 728.102L331.227 734.07L361.067 757.943L358.083 766.895L334.211 787.783L319.291 802.703L313.323 811.655L307.354 784.799V746.006L316.307 719.15Z" fill="#585858"/>
<path d="M465.508 32.8243H540.109L543.093 41.7764L504.3 56.6965L456.556 80.5687L441.636 83.5528L444.62 68.6326L465.508 32.8243Z" fill="#686868"/>
<path d="M847.463 384.939L859.399 399.859L871.336 429.7L844.479 459.54L811.655 480.428L805.687 489.38V480.428L796.735 477.444L817.623 453.572L838.511 411.796L847.463 384.939Z" fill="#717171"/>
<path d="M456.556 844.479L498.332 847.463L492.364 862.383L462.524 895.208L450.588 910.128H426.716L420.748 904.16L441.636 874.32L456.556 844.479Z" fill="#B7B7B7"/>
<path d="M787.783 480.428H805.687V501.316L799.719 522.204L775.846 507.284L769.878 525.188L748.99 543.093L728.102 549.061L731.086 537.125L734.07 531.157L728.102 528.173L748.99 507.284L763.91 492.364L778.83 483.412L787.783 480.428Z" fill="#B4B4B4"/>
<path d="M495.348 853.431L504.3 862.383L525.189 904.16V910.128L504.3 913.112H471.476L450.588 910.128L468.492 886.256L495.348 853.431Z" fill="#979797"/>
<path d="M549.061 689.31L560.997 692.294L572.933 740.038L575.917 760.926L555.029 743.022L504.3 716.166L513.252 707.214L549.061 689.31Z" fill="#6A6A6A"/>
<path d="M587.853 772.863L605.757 784.799L629.629 811.655L653.502 853.431L659.47 874.319L635.597 886.256L626.645 850.447L602.773 802.703L587.853 778.831V772.863Z" fill="#2C2C2C"/>
<path d="M393.891 552.045L399.86 558.013V569.949H393.891L390.907 587.853L375.987 608.741L364.051 614.709H346.147L334.211 599.789V590.837L370.019 569.949L393.891 552.045Z" fill="#313131"/>
<path d="M513.252 185.01L543.093 187.994L566.965 193.962V226.786L563.981 256.626H558.013L528.173 211.866L513.252 190.978V185.01Z" fill="#CFCFCF"/>
<path d="M578.901 107.425H581.885V131.297L572.933 179.042L566.965 187.994L543.093 143.233L534.141 128.313L578.901 107.425Z" fill="#525252"/>
<path d="M552.045 486.396L575.917 504.3L605.757 525.189L611.725 528.173L608.741 537.125L590.837 552.045L560.997 528.173L540.108 507.284L552.045 486.396Z" fill="#303030"/>
<path d="M468.492 486.396L483.412 492.364L489.38 507.284L501.316 516.236L498.332 531.157L492.364 537.125H483.412V546.077H477.444V540.109L465.508 537.125L456.556 528.173L453.572 522.204V501.316L468.492 486.396Z" fill="#818181"/>
<path d="M453.572 617.693L456.556 623.661L441.636 689.31L423.731 677.374L411.795 665.438V659.47L402.843 656.486L408.811 644.549L453.572 617.693Z" fill="#D0D0D0"/>
<path d="M352.115 355.099L367.035 358.083L387.923 370.019H396.875L393.891 381.955L340.179 411.796L337.195 402.843L352.115 355.099Z" fill="#BFBFBF"/>
<path d="M883.272 399.859L892.224 411.795L898.192 432.684V456.556L895.208 471.476H889.24L886.256 483.412L877.304 495.348H871.336L874.32 477.444V447.604L868.352 423.732H874.32L880.288 402.843L883.272 399.859Z" fill="#828282"/>
<path d="M381.955 149.201H393.891L408.811 208.882L417.763 235.738L402.843 232.754L387.923 220.818L381.955 199.93V149.201Z" fill="#4D4D4D"/>
<path d="M164.122 331.227L176.058 337.195L185.01 352.115L182.026 370.019L164.122 390.907L146.217 396.875L134.281 384.939V375.987L131.297 358.083H137.265L152.186 373.003L149.202 361.067L155.17 358.083L164.122 370.019H170.09L164.122 352.115V331.227Z" fill="#060606"/>
<path d="M441.636 698.262L456.556 707.214L480.428 725.118L489.38 731.086L459.54 754.959L462.524 760.927H450.588L441.636 737.054V698.262Z" fill="#404040"/>
<path d="M507.285 626.645H510.269L507.285 695.278L504.301 716.166L498.333 707.214L477.444 674.39L480.428 659.47L504.301 632.613L507.285 626.645Z" fill="#606060"/>
<path d="M489.38 298.403H492.364L498.332 361.067L504.3 396.875L516.236 432.684H510.268L507.284 450.588L501.316 441.636L492.364 411.796L486.396 378.971V313.323L489.38 298.403Z" fill="#343434"/>
<path d="M381.955 307.355L396.875 316.307L429.699 352.115L426.715 364.051L399.859 378.971L387.923 328.243L381.955 307.355Z" fill="#7E7E7E"/>
<path d="M232.754 438.652L247.674 441.636L235.738 444.62L232.754 483.412L223.802 528.172H214.85L208.882 525.188L205.898 507.284L202.914 498.332L232.754 438.652Z" fill="#9B9B9B"/>
<path d="M274.53 176.057H277.514V220.818L220.818 226.786L238.722 205.898L268.562 179.042L274.53 176.057Z" fill="#919191"/>
<path d="M668.421 525.189L722.134 534.141L719.15 540.109L677.374 560.997L656.485 563.981L659.469 546.077L668.421 525.189Z" fill="#5F5F5F"/>
<path d="M510.268 432.684H516.236L537.124 471.476L534.14 462.524L537.124 456.556L552.045 477.444L549.061 495.348L543.092 504.3H537.124L510.268 462.524L507.284 456.556V438.652L510.268 432.684Z" fill="#6F6F6F"/>
<path d="M647.534 214.85H680.358L695.278 223.802L689.31 235.738L668.422 259.61H662.454L647.534 223.802V214.85Z" fill="#878787"/>
<path d="M560.997 190.978H569.949L599.789 235.738V241.706L566.965 259.61L560.997 256.626L566.965 193.962L560.997 190.978Z" fill="#A0A0A0"/>
<path d="M280.498 173.073H307.354L316.307 182.026L289.45 214.85L283.482 226.786L244.69 223.802V220.818H277.514V176.058L280.498 173.073Z" fill="#A9A9A9"/>
<path d="M331.227 214.85H337.195L361.067 247.674L367.035 259.61L337.195 250.658L310.339 241.706L325.259 262.594H310.339L301.387 235.738L322.275 223.802L331.227 214.85Z" fill="#BCBCBC"/>
<path d="M229.77 334.211L241.706 337.195L247.674 340.179L250.658 334.211L265.578 337.195L286.466 355.099L301.386 361.067L295.418 367.035L247.674 381.955L232.754 393.891L217.834 396.875L214.85 381.955L247.674 373.003L262.594 370.019L271.546 367.035L262.594 358.083L274.53 355.099L253.642 340.179L256.626 349.131L229.77 340.179V334.211Z" fill="#6F6F6F"/>
<path d="M190.977 375.987H202.914L196.946 399.859L187.993 417.764L182.025 423.732L167.105 420.748L161.137 414.78L164.121 393.891L179.041 381.955L190.977 375.987Z" fill="#FAFAFA"/>
<path d="M468.492 668.422H477.444L501.316 707.214V713.182L486.396 710.198L441.636 695.278L456.556 680.358L468.492 668.422Z" fill="#ADADAD"/>
<path d="M743.022 489.38L754.958 492.364L751.974 501.316L689.31 522.204L671.406 525.188L683.342 507.284L698.262 492.364H737.054L743.022 489.38Z" fill="#292929"/>
<path d="M101.457 525.189L179.042 528.173L190.978 543.093H122.345L107.425 546.077L101.457 534.141V525.189Z" fill="#565656"/>
<path d="M122.345 540.109H158.153L173.074 543.093V552.045L161.137 558.013L104.441 560.997L107.425 549.061L122.345 540.109Z" fill="#D5D5D5"/>
<path d="M304.371 164.121H325.259L343.163 176.057L349.131 193.962H343.163L340.179 205.898L331.227 208.882L319.291 185.01V179.041L283.482 173.073L292.434 167.105L304.371 164.121Z" fill="#7F7F7F"/>
<path d="M790.767 393.891L799.719 402.843V441.636L790.767 462.524L787.783 450.588L769.878 459.54V432.684L781.815 426.716L787.783 414.78L790.767 393.891Z" fill="#313131"/>
<path d="M787.783 480.428H805.687V501.316L799.719 522.204L775.847 507.284L772.863 492.364L766.895 489.38L787.783 480.428Z" fill="#A5A5A5"/>
<path d="M152.185 560.997L158.154 563.981L143.233 581.885L131.297 605.757L119.361 608.741L113.393 590.837L101.457 578.901L131.297 569.949L152.185 560.997Z" fill="#070707"/>
<path d="M355.099 826.575L358.083 832.543L352.115 871.335L334.211 880.288H322.275L319.291 865.367L340.179 844.479L355.099 826.575Z" fill="#A0A0A0"/>
<path d="M238.722 301.387H265.578L283.482 310.339L277.514 322.275L268.562 328.243L253.642 325.259L229.77 310.339L238.722 301.387Z" fill="#F9F9F9"/>
<path d="M176.058 429.7L182.026 435.668V462.524L176.058 471.476L155.169 468.492L149.201 453.572L125.329 447.604V444.62L173.074 441.636L176.058 429.7Z" fill="#787878"/>
<path d="M241.706 223.802H274.53L271.546 235.738L247.674 262.594L235.738 265.578L241.706 223.802Z" fill="#FAFAFA"/>
<path d="M728.102 453.572V462.524L713.182 477.444L686.326 489.38L674.39 492.364H641.565V489.38L665.438 483.412L680.358 474.46L719.15 459.54L728.102 453.572Z" fill="#434343"/>
<path d="M146.217 572.933L164.121 575.917L146.217 599.789L125.329 620.677L131.297 635.597L137.265 647.534L122.345 644.55L113.393 638.581L119.361 608.741L131.297 602.773L146.217 572.933Z" fill="#8E8E8E"/>
<path d="M349.131 149.201H358.083L375.987 196.946L381.955 208.882L367.035 202.914L343.163 182.026V170.089H355.099L349.131 161.137V149.201Z" fill="#282828"/>
<path d="M728.102 507.284H737.054L731.086 522.204L725.118 531.157H686.326L671.406 528.172L677.374 522.204L728.102 507.284Z" fill="#C7C7C7"/>
<path d="M596.805 298.403H647.534L644.55 328.243L632.613 322.275L608.741 307.355L596.805 301.387V298.403Z" fill="#6A6A6A"/>
<path d="M358.083 259.61H370.019L375.987 277.514H370.019L375.987 298.403L361.067 289.45L340.179 274.53L343.163 265.578L358.083 259.61Z" fill="#737373"/>
<path d="M140.249 471.476H170.09L161.137 480.428L143.233 489.38L137.265 498.332L122.345 501.316L113.393 492.364H119.361L122.345 483.412L140.249 471.476Z" fill="#DEDEDE"/>
<path d="M468.492 602.773L486.396 605.757L495.348 602.773L498.332 605.757L495.348 626.645L489.38 632.613H474.46L468.492 623.661V602.773Z" fill="#060606"/>
<path d="M229.77 310.339L256.626 325.259L274.53 322.275L289.451 310.339L295.419 313.323L292.435 325.259L274.53 334.211H247.674L232.754 325.259L229.77 310.339Z" fill="#929292"/>
<path d="M101.457 558.013H134.281L152.185 560.997L143.233 566.965L116.377 578.901H101.457L98.4727 563.981L101.457 558.013Z" fill="#737373"/>
<path d="M313.323 185.01L316.307 190.978L304.371 229.77L295.419 232.754L280.499 223.802L298.403 199.93L313.323 185.01Z" fill="#888888"/>
<path d="M310.339 241.706L328.243 244.69L361.067 256.626L358.083 262.594L337.195 271.546L310.339 247.674V241.706Z" fill="#A3A3A3"/>
<path d="M757.943 495.348L763.911 498.332L731.086 528.172V540.109V552.045L713.182 555.029L719.15 540.109L722.134 534.141H701.246V531.157H725.118L731.086 516.236L737.054 504.3L757.943 495.348Z" fill="#8B8B8B"/>
<path d="M471.476 474.46L474.46 480.428H498.332L504.3 477.444V495.348L489.38 510.268L480.428 492.364L465.508 486.396L471.476 474.46Z" fill="#494949"/>
<path d="M611.725 531.156L623.662 543.093L629.63 560.997L602.773 558.013L593.821 552.045L599.789 540.109L611.725 531.156Z" fill="#737373"/>
<path d="M110.409 495.348L122.345 498.332L128.313 504.3H122.345V525.188H101.457L98.4727 510.268L104.441 498.332L110.409 495.348Z" fill="#8A8A8A"/>
<path d="M728.102 558.013H760.926L754.958 569.949H748.99V575.917L731.086 587.853H725.118L728.102 558.013Z" fill="#5D5D5D"/>
<path d="M122.345 423.732H146.217L158.153 429.7V435.668H164.121V441.636H131.297L119.361 435.668L122.345 423.732Z" fill="#F1F1F1"/>
<path d="M528.173 426.716L534.141 435.668L555.029 474.46L552.045 480.428L537.125 462.524L543.093 477.444L528.173 462.524L522.205 447.604V429.7L528.173 426.716Z" fill="#0E0E0E"/>
<path d="M113.393 414.78H119.361L122.345 426.716L116.377 441.636L98.4727 453.572V429.7L113.393 414.78Z" fill="#B0B0B0"/>
<path d="M208.882 370.019L211.866 378.971V396.875L199.93 414.78L185.01 420.748L199.93 381.955V373.003L208.882 370.019Z" fill="#DDDDDD"/>
<path d="M128.313 540.109H158.153L173.074 543.093L161.137 549.061L149.201 555.029H125.329L128.313 540.109Z" fill="#F6F6F6"/>
<path d="M122.345 447.604H143.233L155.169 456.556V468.492L122.345 462.524V447.604Z" fill="#0A0A0A"/>
<path d="M477.444 552.045H483.412V558.013L492.364 560.997L489.38 572.933L480.428 581.885L465.508 578.901L468.492 563.981L474.46 560.997L477.444 552.045Z" fill="#7E7E7E"/>
<path d="M480.428 510.268H486.396V534.141L483.412 546.077H477.444V540.109L465.508 537.125L468.492 525.189L480.428 510.268Z" fill="#C2C2C2"/>
<path d="M519.22 596.805L528.173 599.789L537.125 617.693V632.613L531.157 626.645L513.252 620.677L519.22 596.805Z" fill="#252525"/>
<path d="M196.945 337.195L208.882 349.131L202.914 355.099L214.85 361.067L217.834 375.987L211.866 381.955L208.882 373.003L193.961 375.987L196.945 337.195Z" fill="#7D7D7D"/>
<path d="M802.703 486.396H805.687L802.703 516.236L796.735 522.204L781.814 510.268L787.783 498.332L802.703 486.396Z" fill="#949494"/>
<path d="M346.147 182.026L367.035 199.93L373.003 205.898L370.019 226.786L358.083 211.866L346.147 190.978V182.026Z" fill="#464646"/>
<path d="M101.457 525.189L116.377 531.157L146.217 534.141V537.125L122.345 543.093L107.425 546.077L101.457 534.141V525.189Z" fill="#0B0B0B"/>
<path d="M238.722 301.387H265.578L253.642 310.339L247.674 322.275L229.77 310.339L238.722 301.387Z" fill="#CFCFCF"/>
<path d="M104.441 456.556L116.377 462.524L134.281 471.476L128.313 483.412L116.377 477.444L104.441 462.524V456.556Z" fill="#0B0B0B"/>
<path d="M486.396 510.268L498.332 513.252L501.316 528.173L492.364 537.125L483.412 534.141L486.396 510.268Z" fill="#969696"/>
<path d="M164.122 453.572L179.042 456.556L176.058 471.476L155.169 468.492V459.54L164.122 453.572Z" fill="#6A6A6A"/>
<path d="M229.77 310.339L265.578 328.243V331.227H241.706L229.77 319.291V310.339Z" fill="#A4A4A4"/>
<path d="M304.371 164.121H325.259L319.291 176.057L283.482 173.073L292.434 167.105L304.371 164.121Z" fill="#686868"/>
<path d="M847.463 590.837L853.431 593.821L841.495 608.741L814.639 623.661L808.671 620.677L841.495 596.805L847.463 590.837Z" fill="#3E3E3E"/>
<path d="M116.377 623.661L125.329 626.645L137.265 647.534L122.345 644.55L113.393 638.582L116.377 623.661Z" fill="#787878"/>
<path d="M522.205 390.907L528.173 396.875L540.109 432.684L531.157 435.668L522.205 405.827V390.907Z" fill="#2D2D2D"/>
<path d="M170.089 534.141H185.009L190.978 543.093H158.153L149.201 537.125L170.089 534.141Z" fill="#1D1D1D"/>
<path d="M728.102 453.572V462.524L713.182 477.444L707.214 480.428L704.23 465.508L728.102 453.572Z" fill="#272727"/>
<path d="M522.205 429.7L528.173 435.668L540.109 468.492V477.444L522.205 450.588V429.7Z" fill="#2F2F2F"/>
<path d="M128.313 462.524L146.217 465.508L170.089 468.492V471.476L140.249 474.46H131.297L128.313 462.524Z" fill="#8E8E8E"/>
<path d="M757.943 495.348L763.911 498.332L743.022 516.236L734.07 513.252L737.054 504.3L757.943 495.348Z" fill="#858585"/>
<path d="M226.786 378.971L232.754 381.955L226.786 396.875L214.85 393.891V381.955L226.786 378.971Z" fill="#636363"/>
<path d="M226.786 307.355L232.754 319.291L223.802 325.259L217.834 340.179H214.85V322.275L226.786 307.355Z" fill="#595959"/>
<path d="M465.508 566.965H480.428V581.885L465.508 578.901V566.965Z" fill="#CCCCCC"/>
<path d="M161.137 546.077H173.073V552.045L161.137 558.013H137.265L149.201 552.045L161.137 546.077Z" fill="#E3E3E3"/>
<path d="M110.409 495.348L119.361 498.332L107.425 504.3L104.441 516.236H98.4727L104.441 498.332L110.409 495.348Z" fill="#A8A8A8"/>
</g>
<g style="mix-blend-mode:overlay">
<path d="M447.604 32.8243H543.092L593.821 41.7764L638.581 56.6965L671.406 74.6007L716.166 104.441L757.942 134.281L793.751 167.105L823.591 202.914L847.463 250.658L859.399 298.403L865.367 319.291L880.287 346.147L886.255 367.035L889.239 405.828L898.191 432.684V507.284L889.239 552.045L871.335 593.821L859.399 620.677L847.463 641.566L850.447 659.47V695.278L841.495 722.134L823.591 746.006L802.703 763.911H814.639L808.671 775.847L781.814 793.751L778.83 802.703L746.006 820.607L725.118 829.559L683.342 862.383L638.581 886.256L590.837 901.176L546.076 910.128L504.3 913.112H471.476L426.715 910.128L399.859 904.16L402.843 892.224L417.763 868.352L423.731 850.447L370.019 865.368L334.211 880.288H322.275L313.322 853.431L298.402 787.783L283.482 763.911L265.578 754.959H259.61L283.482 766.895V772.863L253.642 769.879L235.738 757.943L220.818 740.038L217.834 728.102V689.31L220.818 680.358L179.041 677.374L140.249 671.406L122.345 659.47L113.393 632.614L119.361 602.773L113.393 590.837L98.4727 575.917L101.457 558.013L107.425 546.077L98.4727 522.205L101.457 504.3L113.393 492.364H119.361L116.377 477.444L104.441 462.524L98.4727 453.572V429.7L113.393 414.78L140.249 396.875L134.281 384.939V375.987L131.297 358.083H137.265L152.185 373.003L149.201 361.067L155.169 358.083L164.121 370.019H170.089L164.121 352.115V328.243L176.057 298.403L185.009 241.706L196.945 202.914L214.85 167.105L223.802 152.185L217.834 149.201V143.233L244.69 131.297L247.674 119.361L280.498 92.5049L322.275 71.6167L364.051 59.6806L396.875 44.7604L447.604 32.8243ZM820.607 695.278L802.703 710.198L793.751 740.038L775.846 763.911L778.83 769.879L796.735 754.959V748.991H802.703L820.607 719.15L823.591 695.278H820.607Z" fill="#010101"/>
<path d="M447.604 32.8243H543.092L593.821 41.7764L638.581 56.6965L671.406 74.6007L716.166 104.441L757.942 134.281L793.751 167.105L823.591 202.914L847.463 250.658L859.399 298.403L865.367 319.291L880.287 346.147L886.255 367.035L889.239 405.828L898.191 432.684V456.556L895.207 471.476H889.239L886.255 483.412L871.335 501.316L856.415 537.125L829.559 587.853L808.671 611.725L781.814 626.645H757.942L763.91 614.709L769.878 602.773L751.974 611.725L746.006 608.741L772.862 587.853L787.783 566.965L772.862 572.933H760.926V560.997L754.958 569.949H748.99V575.917L716.166 596.805L686.326 605.757H635.597L602.773 593.821V590.837L665.437 584.869L701.246 569.949L716.166 558.013L713.182 549.061V543.093L677.374 560.997L668.422 563.981H620.677L590.837 552.045L560.997 528.173L537.124 504.3L510.268 462.524L498.332 429.7L492.364 411.796L486.396 378.971V313.323L489.38 298.403H492.364L498.332 361.067L504.3 396.875L525.188 450.588L540.108 474.46L534.14 456.556L546.076 468.492L552.045 474.46L528.172 426.716L522.204 405.828V390.907L528.172 396.875L543.092 435.668L560.997 465.508L587.853 495.348L614.709 513.252L638.581 522.205H677.374L737.054 504.3L766.894 489.38L784.799 462.524V453.572L769.878 459.54L766.894 432.684L743.022 405.828L716.166 358.083L704.23 328.243V319.291L754.958 316.307L734.07 283.483L704.23 238.722L701.246 232.754L689.31 235.738L668.422 259.61H662.453L647.533 223.802V214.85L614.709 226.786L602.773 232.754L593.821 259.61L575.917 298.403L560.997 292.435L522.204 259.61L513.252 253.642L510.268 244.69L507.284 182.026L471.476 134.281L441.636 98.4729V92.5049H471.476L501.316 104.441L522.204 119.361H528.172L534.14 77.5847L540.108 41.7764L486.396 65.6486L438.652 89.5208L423.731 83.5528L381.955 56.6965V50.7285L420.747 38.7924L447.604 32.8243Z" fill="#6F6F6F"/>
<path d="M304.37 164.121H325.259L343.163 176.057L361.067 211.866L381.955 244.69L375.987 256.626L373.003 268.562L375.987 277.514H370.019L384.939 307.355L408.811 328.243L435.668 361.067L459.54 399.859L474.46 429.7L477.444 456.556L492.364 459.54L504.3 477.444V495.348L495.348 510.268L501.316 516.236L498.332 531.157L492.364 537.125H483.412V546.077H477.444V540.109L465.508 537.125L456.556 528.172L450.588 504.3L438.652 519.22L405.827 546.077L370.019 572.933L325.259 599.789L265.578 623.661L211.866 641.565L170.089 650.518H137.265L113.393 638.581L119.361 602.773L113.393 590.837L98.4727 575.917L101.457 558.013L107.425 546.077L98.4727 522.204L101.457 504.3L113.393 492.364H119.361L122.345 483.412L140.249 471.476L176.057 468.492L179.041 462.524V435.668L167.105 444.62H146.217L119.361 435.668L122.345 423.732L146.217 411.795L161.137 393.891L190.977 375.987L211.866 370.019V378.971L235.738 375.987L256.626 370.019L271.546 367.035L262.594 358.083L274.53 355.099L253.642 340.179L256.626 349.131L229.77 340.179V334.211L241.706 337.195L247.674 340.179V334.211L232.754 325.259L229.77 307.355L238.722 301.387H265.578L286.466 310.339L265.578 298.402L259.61 295.418H226.786L205.898 301.387L202.914 277.514V250.658L226.786 217.834L256.626 187.994L283.482 170.089L304.37 164.121Z" fill="#828282"/>
<path d="M477.444 552.045H483.412V558.013L492.364 560.997L489.38 572.933H483.412V578.901L504.3 581.885L510.268 590.837L513.252 605.757L519.22 596.805L528.172 599.789L537.124 617.693L540.108 638.581L552.045 662.454L566.965 716.166L575.917 751.974L584.869 769.879L611.725 811.655L632.613 856.415L635.597 886.256L590.837 901.176L546.077 910.128L504.3 913.112H471.476L426.716 910.128L399.859 904.16L402.843 892.224L417.763 868.351L423.731 850.447L370.019 865.367L334.211 880.288H322.275L319.291 865.367L334.211 850.447L331.227 838.511L313.323 811.655L307.354 784.799V746.006L322.275 707.214L343.163 680.358L364.051 662.454L373.003 659.47V665.438L399.859 650.518L420.747 608.741L444.62 578.901L456.556 566.965H462.524L465.508 578.901L468.492 563.981L474.46 560.997L477.444 552.045Z" fill="#878787"/>
<path d="M447.604 32.8243H543.092L593.821 41.7764L638.581 56.6965L671.406 74.6007L716.166 104.441L757.942 134.281L793.751 167.105L820.607 199.93L817.623 205.898L805.687 199.93L796.735 196.946L787.783 232.754L763.91 313.323L754.958 316.307L734.07 283.482L704.23 238.722L701.246 232.754L689.31 235.738L668.422 259.61H662.453L647.533 223.802V214.85L614.709 226.786L602.773 232.754L593.821 259.61L575.917 298.403L560.997 292.435L522.204 259.61L513.252 253.642L510.268 244.69L507.284 182.026L471.476 134.281L441.636 98.4729V92.5048H471.476L501.316 104.441L522.204 119.361H528.172L534.14 77.5847L540.108 41.7764L486.396 65.6486L438.652 89.5208L423.731 83.5528L381.955 56.6965V50.7285L420.747 38.7924L447.604 32.8243Z" fill="#747474"/>
<path d="M531.156 41.7764H540.108V65.6486L534.14 92.5048L531.156 119.361H519.22L495.348 104.441L471.476 95.4888L441.636 92.5048L474.46 134.281L510.268 182.026L513.252 250.658L462.524 238.722L420.747 235.738L438.652 265.578L408.811 259.61L390.907 256.626L399.859 274.53L384.939 268.562L373.003 262.594L370.019 268.562L373.003 256.626L378.971 244.69L346.147 190.978L340.179 176.058L325.259 167.105H304.37L280.498 176.058L253.642 193.962L223.802 223.802L205.898 250.658V301.387L226.786 292.434H259.61L283.482 304.371L289.45 313.323L274.53 307.355L265.578 304.371H238.722L232.754 307.355V325.259L247.674 331.227L250.658 343.163L229.77 334.211L232.754 340.179L253.642 346.147V340.179L265.578 346.147L277.514 358.083L268.562 361.067L277.514 367.035L256.626 373.003L226.786 381.955H211.866L208.882 373.003L173.073 387.923L155.169 402.843L143.233 417.764L122.345 426.716L119.361 435.668L146.217 441.636H173.073L179.041 429.7L182.025 435.668V462.524L176.057 471.476L140.249 474.46L128.313 483.412L116.377 477.444L104.441 462.524L98.4727 453.572V429.7L113.393 414.78L140.249 396.875L134.281 384.939V375.987L131.297 358.083H137.265L152.185 373.003L149.201 361.067L155.169 358.083L164.121 370.019H170.089L164.121 352.115V328.243L176.057 298.403L185.009 241.706L196.945 202.914L214.85 167.105L223.802 152.185L217.834 149.201V143.233L244.69 131.297L247.674 119.361L280.498 92.5048L322.275 71.6166L364.051 59.6805L381.955 53.7125L432.683 86.5367L450.588 80.5687L498.332 56.6965L531.156 41.7764Z" fill="#040404"/>
<path d="M304.371 164.121H325.259L343.163 176.057L361.067 211.866L381.955 244.69L375.987 256.626L373.003 268.562L375.987 277.514H370.019L390.907 328.243L399.86 367.035V378.971L337.195 414.779L280.499 435.668L259.61 441.636H235.738L205.898 498.332L196.946 513.252L173.074 510.268V531.156L149.201 519.22L113.393 495.348L119.361 492.364L122.345 483.412L140.249 471.476L176.058 468.492L179.042 462.524V435.668L167.106 444.62H146.217L119.361 435.668L122.345 423.732L146.217 411.795L161.137 393.891L190.978 375.987L211.866 370.019V378.971L235.738 375.987L256.626 370.019L271.546 367.035L262.594 358.083L274.53 355.099L253.642 340.179L256.626 349.131L229.77 340.179V334.211L241.706 337.195L247.674 340.179V334.211L232.754 325.259L229.77 307.355L238.722 301.387H265.578L286.467 310.339L265.578 298.402L259.61 295.418H226.786L205.898 301.387L202.914 277.514V250.658L226.786 217.834L256.626 187.994L283.483 170.089L304.371 164.121Z" fill="#C5C5C5"/>
<path d="M453.572 617.693L456.556 623.661L444.62 674.39V689.31L468.492 668.422H477.444L501.316 707.214L498.332 722.134L489.38 728.102L474.46 725.118L444.62 701.246V737.054L456.556 766.895L495.348 844.479V856.415L468.492 889.24L450.588 910.128H426.716L399.859 904.16L402.843 892.224L417.763 868.351L423.731 850.447L370.019 865.367L334.211 880.288H322.275L319.291 865.367L334.211 850.447L331.227 838.511L313.323 811.655L307.354 784.799V746.006L322.275 707.214L343.163 680.358L364.051 662.454L373.003 659.47V665.438L435.668 629.629L453.572 617.693Z" fill="#707070"/>
<path d="M638.582 214.85H647.534L662.454 253.642V259.61H668.422L674.39 247.674L695.278 229.77V411.796L677.374 396.875L653.502 355.099L650.518 370.019V411.796L659.47 441.636L674.39 465.508L680.358 471.476L698.262 468.492L731.086 453.572L725.118 465.508L710.198 480.428L674.39 492.364H641.566L626.645 489.38L629.629 495.348L611.725 489.38L584.869 468.492L563.981 438.652L540.109 390.907L522.205 337.195L513.252 280.498V253.642L528.173 262.594L569.949 295.419L575.917 298.403L581.885 280.498L602.773 232.754L626.645 217.834L638.582 214.85Z" fill="#555555"/>
<path d="M540.108 32.8243L581.885 38.7924L629.629 53.7125L671.406 74.6007L716.166 104.441L757.942 134.281L772.862 149.201L787.783 176.058L796.735 193.962L722.134 220.818L707.214 226.786L692.294 223.802L674.39 214.85L644.549 211.866L641.565 185.01L629.629 149.201L617.693 131.297L590.837 113.393L575.917 98.4729L540.108 38.7924V32.8243Z" fill="#C9C9C9"/>
<path d="M531.157 41.7764H540.109V65.6486L534.141 92.5048L531.157 119.361H519.221L495.348 104.441L471.476 95.4888L441.636 92.5048L474.46 134.281L510.269 182.026L513.253 250.658L462.524 238.722L420.748 235.738L438.652 265.578L408.812 259.61L390.907 256.626L399.86 274.53L384.939 268.562L373.003 262.594L370.019 268.562L373.003 256.626L378.971 244.69L346.147 190.978L343.163 170.089H355.099L349.131 161.137V149.201H358.083L375.987 196.946L381.955 205.898V149.201L396.876 143.233H411.796L408.812 131.297H435.668L450.588 143.233L438.652 107.425L435.668 89.5208L450.588 80.5687L498.332 56.6965L531.157 41.7764Z" fill="#2F2F2F"/>
<path d="M477.444 552.045H483.412V558.013L492.364 560.997L489.38 572.933H483.412V578.901L504.3 581.885L510.268 590.837L513.252 605.757L519.22 596.805L528.172 599.789L537.124 617.693L540.108 638.581L552.045 662.454L566.965 716.166L575.917 751.974L578.901 766.895L543.092 757.942H471.476L450.588 760.926L441.636 737.054V698.262L456.556 707.214L480.428 725.118L492.364 722.134L498.332 719.15L495.348 701.246L477.444 674.39V668.422L462.524 677.374L441.636 692.294L444.62 659.47L453.572 620.677L405.827 650.518L402.843 644.549L420.747 608.741L444.62 578.901L456.556 566.965H462.524L465.508 578.901L468.492 563.981L474.46 560.997L477.444 552.045Z" fill="#6E6E6E"/>
<path d="M381.955 307.355L396.875 316.307L429.699 352.115L456.556 393.891L474.46 429.7L477.444 456.556L492.364 459.54L504.3 477.444V495.348L495.348 510.268L501.316 516.236L498.332 531.157L492.364 537.125H483.412V546.077H477.444V540.109L465.508 537.125L456.556 528.172L450.588 504.3L438.652 519.22L405.827 546.077L393.891 552.045L387.923 534.141L384.939 516.236V462.524L390.907 420.748L396.875 390.907V367.035L384.939 319.291L381.955 307.355Z" fill="#6C6C6C"/>
<path d="M307.355 361.067H316.307L331.227 396.875L334.211 411.796L322.275 420.748L259.61 441.636H235.738L205.898 498.332L196.946 513.252L173.074 510.268V531.157L149.201 519.221L113.393 495.348L119.361 492.364L122.345 483.412L140.249 471.476L176.058 468.492L179.042 462.524V435.668L167.106 444.62H146.217L119.361 435.668L122.345 423.732L146.217 411.796L161.137 393.891L190.978 375.987L211.866 370.019L214.85 381.955L217.834 393.891L232.754 390.907L247.674 378.971L307.355 361.067Z" fill="#C7C7C7"/>
<path d="M704.23 319.291H772.863L856.415 325.259V355.099L844.479 402.843L829.559 438.652L805.687 471.476L796.735 480.428L772.863 486.396L787.783 453.572L778.831 456.556L769.879 459.54L766.895 432.684L743.022 405.828L716.166 358.083L704.23 328.243V319.291Z" fill="#606060"/>
<path d="M450.588 760.927L459.54 772.863L495.349 844.479V856.415L468.492 889.24L450.588 910.128H426.716L399.86 904.16L402.844 892.224L417.764 868.352L423.732 850.447L370.019 865.367L334.211 880.288H322.275L319.291 865.367L340.179 844.479L355.099 826.575L402.844 793.751L450.588 760.927Z" fill="#CCCCCC"/>
<path d="M199.93 256.626H202.914L205.898 277.514V301.387L226.786 292.435H259.61L283.482 304.371L289.45 313.323L274.53 307.355L265.578 304.371H238.722L232.754 307.355V325.259L247.674 331.227L250.658 343.163L229.77 334.211L232.754 340.179L253.642 346.147V340.179L265.578 346.147L277.514 358.083L268.562 361.067L277.514 367.035L256.626 373.003L226.786 381.955H211.866L208.882 373.003L173.073 387.923L155.169 402.843L143.233 417.764L122.345 426.716L119.361 435.668L146.217 441.636H173.073L179.041 429.7L182.025 435.668V462.524L176.057 471.476L140.249 474.46L128.313 483.412L116.377 477.444L104.441 462.524L98.4727 453.572V429.7L113.393 414.78L140.249 396.875L134.281 384.939V375.987L131.297 358.083H137.265L152.185 373.003L149.201 361.067L155.169 358.083L164.121 370.019H170.089L164.121 352.115V328.243L176.057 298.403L179.041 292.435H185.009L190.977 274.53L199.93 256.626Z" fill="#A7A7A7"/>
<path d="M489.38 298.403H492.364L498.332 361.067L504.3 396.875L525.188 450.588L540.108 474.46L534.14 456.556L546.077 468.492L552.045 474.46L528.172 426.716L522.204 405.827V390.907L528.172 396.875L543.092 435.668L560.997 465.508L587.853 495.348L614.709 513.252L638.581 522.204L686.326 528.173L722.134 534.141L719.15 540.109L677.374 560.997L668.422 563.981H620.677L590.837 552.045L560.997 528.173L537.124 504.3L510.268 462.524L498.332 429.7L492.364 411.796L486.396 378.971V313.323L489.38 298.403Z" fill="#3D3D3D"/>
<path d="M334.211 417.764H340.179L364.051 477.444L390.907 543.093L393.892 555.029L361.067 578.901L325.259 599.789L289.451 614.709H280.499L286.467 596.805L298.403 566.965L310.339 525.188L334.211 417.764Z" fill="#9B9B9B"/>
<path d="M796.735 196.946L808.671 199.93L823.591 202.914L847.463 250.658L859.399 298.403L862.383 319.291L859.399 340.179H856.415V325.259L772.863 322.275L757.942 319.291L784.799 232.754L796.735 196.946Z" fill="#717171"/>
<path d="M692.294 229.77H695.278V411.796L677.374 396.875L653.501 355.099L650.517 370.019V411.796L659.469 441.636L674.39 465.508L680.358 474.46L662.453 468.492L641.565 447.604L626.645 414.78L623.661 390.907L644.549 337.195L647.533 292.435L662.453 262.594L689.31 232.754L692.294 229.77Z" fill="#2F2F2F"/>
<path d="M531.157 41.7764H540.109V65.6486L534.141 92.5048L531.157 119.361H519.221L495.348 104.441L471.476 95.4888L441.636 92.5048L474.46 134.281L510.269 182.026L513.253 250.658L504.301 247.674L462.524 185.01L435.668 140.249L441.636 137.265L450.588 140.249L438.652 107.425L435.668 89.5208L450.588 80.5687L498.332 56.6965L531.157 41.7764Z" fill="#535353"/>
<path d="M692.294 92.5048L707.214 98.4728L746.006 125.329L772.863 146.217L778.831 161.137L796.735 190.978L790.767 196.946L707.214 226.786L695.278 223.802L698.262 217.834V128.313L692.294 92.5048Z" fill="#A4A4A4"/>
<path d="M304.371 164.121H325.259L343.163 176.057L361.067 211.866L381.955 244.69L375.987 256.626L373.003 268.562L375.987 277.514H370.019L375.987 298.402L361.067 289.45L340.179 274.53L343.163 265.578L358.083 259.61H367.035L337.195 220.818V214.85L310.339 235.738L295.419 232.754L277.514 226.786H220.818L238.722 205.898L268.562 179.041L292.434 167.105L304.371 164.121Z" fill="#9F9F9F"/>
<path d="M226.786 223.802H277.514L298.402 232.754L307.354 244.69L319.291 271.546V277.514L304.37 274.53L301.386 310.339L295.418 316.307L274.53 301.387L259.61 295.418H226.786L205.898 301.387L202.914 277.514V250.658L220.818 226.786L226.786 223.802Z" fill="#D8D8D8"/>
<path d="M525.188 555.029L537.125 566.965L558.013 590.837L581.885 614.709L623.661 641.565L662.454 656.486L704.23 659.47L701.246 665.438L740.038 671.406L731.086 680.358L692.294 692.294H650.518L620.677 683.342L590.837 665.438L558.013 632.613L540.109 602.773L525.188 566.965V555.029Z" fill="#363636"/>
<path d="M393.891 653.502H399.859L390.907 683.342L367.035 748.99L358.083 766.894L334.211 787.783L319.291 802.703L313.323 811.655L307.354 784.799V746.006L322.275 707.214L343.163 680.358L364.051 662.454L373.003 659.47V665.438L393.891 653.502Z" fill="#6D6D6D"/>
<path d="M453.572 617.693L456.556 623.661L444.62 674.39V689.31L468.492 668.422H477.444L501.316 707.214V713.182L486.396 710.198L450.588 698.262L435.668 701.246L402.844 728.102L370.019 754.958L364.051 757.942L367.035 743.022L399.86 650.518L453.572 617.693Z" fill="#BDBDBD"/>
<path d="M110.409 495.348L122.345 498.332L170.089 528.172V507.284L196.945 510.268L199.93 504.3L208.882 507.284L211.866 519.22L208.882 525.188L220.818 531.157L217.834 549.061L205.898 578.901H193.961L176.057 555.029L161.137 558.013L104.441 560.997L107.425 546.077L98.4727 522.204L101.457 504.3L110.409 495.348Z" fill="#A6A6A6"/>
<path d="M513.252 253.642L528.173 262.594L572.933 298.402L569.949 346.147L563.981 432.684L555.029 423.732L537.125 381.955L522.205 337.195L513.252 280.498V253.642Z" fill="#2D2D2D"/>
<path d="M346.147 65.6486H355.099L364.051 89.5208L361.067 119.361L358.083 137.265L349.131 128.313V122.345H343.163V131.297L328.243 125.329H322.275L328.243 137.265L307.354 131.297L319.291 146.217L262.594 149.201L265.578 143.233L298.402 137.265L244.69 128.313L250.658 116.377L280.498 92.5048L322.275 71.6166L346.147 65.6486Z" fill="#595959"/>
<path d="M525.189 125.329L537.125 131.297L558.013 164.121L578.901 205.898L599.789 235.738V241.706L566.965 259.61L558.013 256.626L528.173 211.866L513.252 190.978L516.236 164.121L525.189 125.329Z" fill="#8B8B8B"/>
<path d="M307.354 361.067H316.306L331.227 396.875L334.211 411.796L322.275 420.748L259.61 441.636H235.738L238.722 423.732L250.658 396.875V378.971L295.418 364.051L307.354 361.067Z" fill="#FAFAFA"/>
<path d="M581.885 107.425L611.725 122.345L629.629 143.233L632.613 161.137L611.725 226.786L608.741 232.754H602.773L599.789 238.722L566.965 190.978L578.901 131.297L581.885 107.425Z" fill="#7B7B7B"/>
<path d="M349.131 149.201H358.083L375.987 196.946L381.955 205.898V149.201H393.892L408.812 208.882L429.7 250.658L438.652 265.578L408.812 259.61L390.907 256.626L399.86 274.53L384.939 268.562L373.003 262.594L370.019 268.562L373.003 256.626L378.971 244.69L346.147 190.978L343.163 170.089H355.099L349.131 161.137V149.201Z" fill="#353535"/>
<path d="M865.367 504.3L868.351 510.268L856.415 537.125L829.559 587.853L808.671 611.725L781.815 626.645H757.942L763.91 614.709L769.879 602.773L751.974 611.725L746.006 608.741L772.863 587.853L787.783 566.965V560.997L820.607 540.109L865.367 504.3Z" fill="#4A4A4A"/>
<path d="M301.386 289.45H304.37L313.322 343.163L316.306 361.067L247.674 381.955L232.754 393.891L217.834 396.875L214.85 381.955L247.674 373.003L262.594 370.019L271.546 367.035L262.594 358.083L274.53 355.099L253.642 340.179L256.626 349.131L229.77 340.179V334.211L241.706 337.195L247.674 340.179V334.211L232.754 325.259L229.77 307.355L238.722 301.387H265.578L283.482 310.339L295.418 313.323L298.402 310.339L301.386 289.45Z" fill="#7B7B7B"/>
<path d="M581.885 769.879L593.821 781.815L620.677 829.559L635.598 868.351V886.256L590.837 901.176H575.917L581.885 856.415V769.879Z" fill="#676767"/>
<path d="M393.891 378.971H399.86L396.875 402.844L390.907 432.684L387.923 462.524V516.236L390.907 543.093L381.955 531.157L352.115 456.556L340.179 423.732V417.764L334.211 414.78L358.083 399.859L393.891 378.971Z" fill="#828282"/>
<path d="M441.636 698.262L456.556 707.214L480.428 725.118L492.364 722.134L501.316 716.166L516.236 719.15L555.029 740.038L575.917 757.943L578.901 766.895L543.093 757.943H471.476L450.588 760.927L441.636 737.054V698.262Z" fill="#2F2F2F"/>
<path d="M704.23 319.291H760.926L769.879 408.812V432.684L751.974 417.764L725.118 375.987L710.198 343.163L704.23 328.243V319.291Z" fill="#3D3D3D"/>
<path d="M226.786 292.435H259.61L283.482 304.371L289.45 313.323L274.53 307.355L265.578 304.371H238.722L232.754 307.355V325.259L247.674 331.227L250.658 343.163L229.77 334.211L232.754 340.179L253.642 346.147V340.179L265.578 346.147L277.514 358.083L268.562 361.067L277.514 367.035L256.626 373.003L226.786 381.955H214.85L211.866 361.067L199.929 355.099L205.898 349.131L193.961 334.211V316.307L208.882 301.387L226.786 292.435Z" fill="#0E0E0E"/>
<path d="M161.138 578.901L190.978 581.885L199.93 584.869L193.962 614.709L185.01 647.534L170.09 650.518H137.265L122.345 626.645L128.313 614.709L161.138 578.901Z" fill="#BDBDBD"/>
<path d="M743.022 125.329L760.926 137.265L772.863 149.201L787.783 176.058L796.735 193.962L722.134 220.818L704.23 223.802L725.118 190.978L737.054 161.137L743.022 125.329Z" fill="#BEBEBE"/>
<path d="M531.157 41.7764H540.109V65.6486L534.141 92.5048L531.157 119.361H519.22L495.348 104.441L459.54 92.5048L441.636 89.5208V83.5527L525.188 44.7604L531.157 41.7764Z" fill="#424242"/>
<path d="M510.269 190.978L522.205 196.946L543.093 229.77L560.997 256.626L575.917 250.658L593.821 241.706L599.789 244.69L575.917 298.403L560.997 292.435L522.205 259.61L513.253 253.642L510.269 244.69V190.978Z" fill="#868686"/>
<path d="M519.22 596.805L528.172 599.789L537.125 617.693L540.109 638.582L552.045 662.454L558.013 689.31L504.3 713.182L510.268 605.757L519.22 596.805Z" fill="#3D3D3D"/>
<path d="M167.105 552.045L179.041 555.029L199.93 581.885L190.977 584.869L161.137 581.885L125.329 620.677L131.297 635.597L137.265 647.534L122.345 644.549L113.393 638.581L119.361 602.773L113.393 590.837L98.4727 575.917L101.457 558.013L161.137 555.029L167.105 552.045Z" fill="#CFCFCF"/>
<path d="M477.444 552.045H483.412V558.013L492.364 560.997L489.38 572.933H483.412V578.901L495.348 581.885V599.789L486.396 608.741L471.476 605.757L465.508 602.773L459.54 620.677L444.62 626.645L402.843 650.518L408.811 629.629L429.699 596.805L456.556 566.965H462.524L465.508 578.901L468.492 563.981L474.46 560.997L477.444 552.045Z" fill="#898989"/>
<path d="M438.652 695.278L459.54 698.262L501.316 713.182L498.332 722.134L489.38 728.102L474.46 725.118L444.62 701.246V737.054L450.588 763.911L447.604 757.943H367.035L378.971 743.022L408.812 719.15L438.652 695.278Z" fill="#7F7F7F"/>
<path d="M179.042 465.508H187.994L202.914 495.348L199.93 510.268L187.994 513.252L173.074 510.268V531.157L149.201 519.22L113.393 495.348L119.361 492.364L122.345 483.412L140.249 471.476L176.058 468.492L179.042 465.508Z" fill="#F9F9F9"/>
<path d="M298.402 238.722H304.37L316.306 265.578L319.291 277.514L304.37 274.53L301.386 310.339L295.418 316.307L274.53 301.387L259.61 295.419V289.45H235.738L250.658 262.594L256.626 256.626L286.466 244.69L298.402 238.722Z" fill="#F9F9F9"/>
<path d="M304.371 164.121H325.259L343.163 176.057L361.067 211.866L381.955 244.69L375.987 256.626L373.003 268.562L375.987 277.514H370.019L375.987 298.402L361.067 289.45L340.179 274.53L343.163 265.578L358.083 259.61H367.035L337.195 220.818L319.291 185.01V179.041L283.482 173.073L292.434 167.105L304.371 164.121Z" fill="#A5A5A5"/>
<path d="M190.977 375.987H202.914L196.946 399.859L187.993 417.764L173.073 426.716L176.057 435.668L167.105 444.62H146.217L119.361 435.668L122.345 423.732L146.217 411.795L161.137 393.891L190.977 375.987Z" fill="#CDCDCD"/>
<path d="M632.613 155.169L638.581 164.121L644.55 185.01V211.866H674.39L692.294 220.818V232.754L671.406 253.642L668.422 259.61H662.454L647.534 223.802V214.85L614.709 226.786L608.741 223.802L632.613 155.169Z" fill="#909090"/>
<path d="M587.853 301.387L608.741 304.371L632.613 319.291L644.55 328.243V304.371H647.534V337.195L626.645 390.907H620.677L593.821 319.291L587.853 301.387Z" fill="#474747"/>
<path d="M176.058 429.7L182.026 435.668V462.524L176.058 471.476L140.249 474.46L128.313 483.412L116.377 477.444L104.441 462.524L101.457 450.588L119.361 435.668L146.217 441.636H173.074L176.058 429.7Z" fill="#7C7C7C"/>
<path d="M447.604 32.8243H465.508L459.54 47.7445L444.62 74.6007L438.652 89.5208L423.731 83.5528L381.955 56.6965V50.7285L420.747 38.7924L447.604 32.8243Z" fill="#9A9A9A"/>
<path d="M110.409 495.348L122.345 498.332L170.089 528.172L182.025 531.157L190.977 543.093H122.345L107.425 546.077L98.4727 522.204L101.457 504.3L110.409 495.348Z" fill="#7F7F7F"/>
<path d="M859.399 319.291H865.367L880.288 346.147L886.256 367.035V399.859L874.319 423.732H868.351L853.431 396.875L850.447 393.891L853.431 355.099L859.399 319.291Z" fill="#A6A6A6"/>
<path d="M316.307 719.15L319.291 728.102L331.227 734.07L361.067 757.943L358.083 766.895L334.211 787.783L319.291 802.703L313.323 811.655L307.354 784.799V746.006L316.307 719.15Z" fill="#585858"/>
<path d="M465.508 32.8243H540.109L543.093 41.7764L504.3 56.6965L456.556 80.5687L441.636 83.5528L444.62 68.6326L465.508 32.8243Z" fill="#686868"/>
<path d="M847.463 384.939L859.399 399.859L871.336 429.7L844.479 459.54L811.655 480.428L805.687 489.38V480.428L796.735 477.444L817.623 453.572L838.511 411.796L847.463 384.939Z" fill="#717171"/>
<path d="M456.556 844.479L498.332 847.463L492.364 862.383L462.524 895.208L450.588 910.128H426.716L420.748 904.16L441.636 874.32L456.556 844.479Z" fill="#B7B7B7"/>
<path d="M787.783 480.428H805.687V501.316L799.719 522.204L775.846 507.284L769.878 525.188L748.99 543.093L728.102 549.061L731.086 537.125L734.07 531.157L728.102 528.173L748.99 507.284L763.91 492.364L778.83 483.412L787.783 480.428Z" fill="#B4B4B4"/>
<path d="M495.348 853.431L504.3 862.383L525.189 904.16V910.128L504.3 913.112H471.476L450.588 910.128L468.492 886.256L495.348 853.431Z" fill="#979797"/>
<path d="M549.061 689.31L560.997 692.294L572.933 740.038L575.917 760.926L555.029 743.022L504.3 716.166L513.252 707.214L549.061 689.31Z" fill="#6A6A6A"/>
<path d="M587.853 772.863L605.757 784.799L629.629 811.655L653.502 853.431L659.47 874.319L635.597 886.256L626.645 850.447L602.773 802.703L587.853 778.831V772.863Z" fill="#2C2C2C"/>
<path d="M393.891 552.045L399.86 558.013V569.949H393.891L390.907 587.853L375.987 608.741L364.051 614.709H346.147L334.211 599.789V590.837L370.019 569.949L393.891 552.045Z" fill="#313131"/>
<path d="M513.252 185.01L543.093 187.994L566.965 193.962V226.786L563.981 256.626H558.013L528.173 211.866L513.252 190.978V185.01Z" fill="#CFCFCF"/>
<path d="M578.901 107.425H581.885V131.297L572.933 179.042L566.965 187.994L543.093 143.233L534.141 128.313L578.901 107.425Z" fill="#525252"/>
<path d="M552.045 486.396L575.917 504.3L605.757 525.189L611.725 528.173L608.741 537.125L590.837 552.045L560.997 528.173L540.108 507.284L552.045 486.396Z" fill="#303030"/>
<path d="M468.492 486.396L483.412 492.364L489.38 507.284L501.316 516.236L498.332 531.157L492.364 537.125H483.412V546.077H477.444V540.109L465.508 537.125L456.556 528.173L453.572 522.204V501.316L468.492 486.396Z" fill="#818181"/>
<path d="M453.572 617.693L456.556 623.661L441.636 689.31L423.731 677.374L411.795 665.438V659.47L402.843 656.486L408.811 644.549L453.572 617.693Z" fill="#D0D0D0"/>
<path d="M352.115 355.099L367.035 358.083L387.923 370.019H396.875L393.891 381.955L340.179 411.796L337.195 402.843L352.115 355.099Z" fill="#BFBFBF"/>
<path d="M883.272 399.859L892.224 411.795L898.192 432.684V456.556L895.208 471.476H889.24L886.256 483.412L877.304 495.348H871.336L874.32 477.444V447.604L868.352 423.732H874.32L880.288 402.843L883.272 399.859Z" fill="#828282"/>
<path d="M381.955 149.201H393.891L408.811 208.882L417.763 235.738L402.843 232.754L387.923 220.818L381.955 199.93V149.201Z" fill="#4D4D4D"/>
<path d="M164.122 331.227L176.058 337.195L185.01 352.115L182.026 370.019L164.122 390.907L146.217 396.875L134.281 384.939V375.987L131.297 358.083H137.265L152.186 373.003L149.202 361.067L155.17 358.083L164.122 370.019H170.09L164.122 352.115V331.227Z" fill="#060606"/>
<path d="M441.636 698.262L456.556 707.214L480.428 725.118L489.38 731.086L459.54 754.959L462.524 760.927H450.588L441.636 737.054V698.262Z" fill="#404040"/>
<path d="M507.285 626.645H510.269L507.285 695.278L504.301 716.166L498.333 707.214L477.444 674.39L480.428 659.47L504.301 632.613L507.285 626.645Z" fill="#606060"/>
<path d="M489.38 298.403H492.364L498.332 361.067L504.3 396.875L516.236 432.684H510.268L507.284 450.588L501.316 441.636L492.364 411.796L486.396 378.971V313.323L489.38 298.403Z" fill="#343434"/>
<path d="M381.955 307.355L396.875 316.307L429.699 352.115L426.715 364.051L399.859 378.971L387.923 328.243L381.955 307.355Z" fill="#7E7E7E"/>
<path d="M232.754 438.652L247.674 441.636L235.738 444.62L232.754 483.412L223.802 528.172H214.85L208.882 525.188L205.898 507.284L202.914 498.332L232.754 438.652Z" fill="#9B9B9B"/>
<path d="M274.53 176.057H277.514V220.818L220.818 226.786L238.722 205.898L268.562 179.042L274.53 176.057Z" fill="#919191"/>
<path d="M668.421 525.189L722.134 534.141L719.15 540.109L677.374 560.997L656.485 563.981L659.469 546.077L668.421 525.189Z" fill="#5F5F5F"/>
<path d="M510.268 432.684H516.236L537.124 471.476L534.14 462.524L537.124 456.556L552.045 477.444L549.061 495.348L543.092 504.3H537.124L510.268 462.524L507.284 456.556V438.652L510.268 432.684Z" fill="#6F6F6F"/>
<path d="M647.534 214.85H680.358L695.278 223.802L689.31 235.738L668.422 259.61H662.454L647.534 223.802V214.85Z" fill="#878787"/>
<path d="M560.997 190.978H569.949L599.789 235.738V241.706L566.965 259.61L560.997 256.626L566.965 193.962L560.997 190.978Z" fill="#A0A0A0"/>
<path d="M280.498 173.073H307.354L316.307 182.026L289.45 214.85L283.482 226.786L244.69 223.802V220.818H277.514V176.058L280.498 173.073Z" fill="#A9A9A9"/>
<path d="M331.227 214.85H337.195L361.067 247.674L367.035 259.61L337.195 250.658L310.339 241.706L325.259 262.594H310.339L301.387 235.738L322.275 223.802L331.227 214.85Z" fill="#BCBCBC"/>
<path d="M229.77 334.211L241.706 337.195L247.674 340.179L250.658 334.211L265.578 337.195L286.466 355.099L301.386 361.067L295.418 367.035L247.674 381.955L232.754 393.891L217.834 396.875L214.85 381.955L247.674 373.003L262.594 370.019L271.546 367.035L262.594 358.083L274.53 355.099L253.642 340.179L256.626 349.131L229.77 340.179V334.211Z" fill="#6F6F6F"/>
<path d="M190.977 375.987H202.914L196.946 399.859L187.993 417.764L182.025 423.732L167.105 420.748L161.137 414.78L164.121 393.891L179.041 381.955L190.977 375.987Z" fill="#FAFAFA"/>
<path d="M468.492 668.422H477.444L501.316 707.214V713.182L486.396 710.198L441.636 695.278L456.556 680.358L468.492 668.422Z" fill="#ADADAD"/>
<path d="M743.022 489.38L754.958 492.364L751.974 501.316L689.31 522.204L671.406 525.188L683.342 507.284L698.262 492.364H737.054L743.022 489.38Z" fill="#292929"/>
<path d="M101.457 525.189L179.042 528.173L190.978 543.093H122.345L107.425 546.077L101.457 534.141V525.189Z" fill="#565656"/>
<path d="M122.345 540.109H158.153L173.074 543.093V552.045L161.137 558.013L104.441 560.997L107.425 549.061L122.345 540.109Z" fill="#D5D5D5"/>
<path d="M304.371 164.121H325.259L343.163 176.057L349.131 193.962H343.163L340.179 205.898L331.227 208.882L319.291 185.01V179.041L283.482 173.073L292.434 167.105L304.371 164.121Z" fill="#7F7F7F"/>
<path d="M790.767 393.891L799.719 402.843V441.636L790.767 462.524L787.783 450.588L769.878 459.54V432.684L781.815 426.716L787.783 414.78L790.767 393.891Z" fill="#313131"/>
<path d="M787.783 480.428H805.687V501.316L799.719 522.204L775.847 507.284L772.863 492.364L766.895 489.38L787.783 480.428Z" fill="#A5A5A5"/>
<path d="M152.185 560.997L158.154 563.981L143.233 581.885L131.297 605.757L119.361 608.741L113.393 590.837L101.457 578.901L131.297 569.949L152.185 560.997Z" fill="#070707"/>
<path d="M355.099 826.575L358.083 832.543L352.115 871.335L334.211 880.288H322.275L319.291 865.367L340.179 844.479L355.099 826.575Z" fill="#A0A0A0"/>
<path d="M238.722 301.387H265.578L283.482 310.339L277.514 322.275L268.562 328.243L253.642 325.259L229.77 310.339L238.722 301.387Z" fill="#F9F9F9"/>
<path d="M176.058 429.7L182.026 435.668V462.524L176.058 471.476L155.169 468.492L149.201 453.572L125.329 447.604V444.62L173.074 441.636L176.058 429.7Z" fill="#787878"/>
<path d="M241.706 223.802H274.53L271.546 235.738L247.674 262.594L235.738 265.578L241.706 223.802Z" fill="#FAFAFA"/>
<path d="M728.102 453.572V462.524L713.182 477.444L686.326 489.38L674.39 492.364H641.565V489.38L665.438 483.412L680.358 474.46L719.15 459.54L728.102 453.572Z" fill="#434343"/>
<path d="M146.217 572.933L164.121 575.917L146.217 599.789L125.329 620.677L131.297 635.597L137.265 647.534L122.345 644.55L113.393 638.581L119.361 608.741L131.297 602.773L146.217 572.933Z" fill="#8E8E8E"/>
<path d="M349.131 149.201H358.083L375.987 196.946L381.955 208.882L367.035 202.914L343.163 182.026V170.089H355.099L349.131 161.137V149.201Z" fill="#282828"/>
<path d="M728.102 507.284H737.054L731.086 522.204L725.118 531.157H686.326L671.406 528.172L677.374 522.204L728.102 507.284Z" fill="#C7C7C7"/>
<path d="M596.805 298.403H647.534L644.55 328.243L632.613 322.275L608.741 307.355L596.805 301.387V298.403Z" fill="#6A6A6A"/>
<path d="M358.083 259.61H370.019L375.987 277.514H370.019L375.987 298.403L361.067 289.45L340.179 274.53L343.163 265.578L358.083 259.61Z" fill="#737373"/>
<path d="M140.249 471.476H170.09L161.137 480.428L143.233 489.38L137.265 498.332L122.345 501.316L113.393 492.364H119.361L122.345 483.412L140.249 471.476Z" fill="#DEDEDE"/>
<path d="M468.492 602.773L486.396 605.757L495.348 602.773L498.332 605.757L495.348 626.645L489.38 632.613H474.46L468.492 623.661V602.773Z" fill="#060606"/>
<path d="M229.77 310.339L256.626 325.259L274.53 322.275L289.451 310.339L295.419 313.323L292.435 325.259L274.53 334.211H247.674L232.754 325.259L229.77 310.339Z" fill="#929292"/>
<path d="M101.457 558.013H134.281L152.185 560.997L143.233 566.965L116.377 578.901H101.457L98.4727 563.981L101.457 558.013Z" fill="#737373"/>
<path d="M313.323 185.01L316.307 190.978L304.371 229.77L295.419 232.754L280.499 223.802L298.403 199.93L313.323 185.01Z" fill="#888888"/>
<path d="M310.339 241.706L328.243 244.69L361.067 256.626L358.083 262.594L337.195 271.546L310.339 247.674V241.706Z" fill="#A3A3A3"/>
<path d="M757.943 495.348L763.911 498.332L731.086 528.172V540.109V552.045L713.182 555.029L719.15 540.109L722.134 534.141H701.246V531.157H725.118L731.086 516.236L737.054 504.3L757.943 495.348Z" fill="#8B8B8B"/>
<path d="M471.476 474.46L474.46 480.428H498.332L504.3 477.444V495.348L489.38 510.268L480.428 492.364L465.508 486.396L471.476 474.46Z" fill="#494949"/>
<path d="M611.725 531.156L623.662 543.093L629.63 560.997L602.773 558.013L593.821 552.045L599.789 540.109L611.725 531.156Z" fill="#737373"/>
<path d="M110.409 495.348L122.345 498.332L128.313 504.3H122.345V525.188H101.457L98.4727 510.268L104.441 498.332L110.409 495.348Z" fill="#8A8A8A"/>
<path d="M728.102 558.013H760.926L754.958 569.949H748.99V575.917L731.086 587.853H725.118L728.102 558.013Z" fill="#5D5D5D"/>
<path d="M122.345 423.732H146.217L158.153 429.7V435.668H164.121V441.636H131.297L119.361 435.668L122.345 423.732Z" fill="#F1F1F1"/>
<path d="M528.173 426.716L534.141 435.668L555.029 474.46L552.045 480.428L537.125 462.524L543.093 477.444L528.173 462.524L522.205 447.604V429.7L528.173 426.716Z" fill="#0E0E0E"/>
<path d="M113.393 414.78H119.361L122.345 426.716L116.377 441.636L98.4727 453.572V429.7L113.393 414.78Z" fill="#B0B0B0"/>
<path d="M208.882 370.019L211.866 378.971V396.875L199.93 414.78L185.01 420.748L199.93 381.955V373.003L208.882 370.019Z" fill="#DDDDDD"/>
<path d="M128.313 540.109H158.153L173.074 543.093L161.137 549.061L149.201 555.029H125.329L128.313 540.109Z" fill="#F6F6F6"/>
<path d="M122.345 447.604H143.233L155.169 456.556V468.492L122.345 462.524V447.604Z" fill="#0A0A0A"/>
<path d="M477.444 552.045H483.412V558.013L492.364 560.997L489.38 572.933L480.428 581.885L465.508 578.901L468.492 563.981L474.46 560.997L477.444 552.045Z" fill="#7E7E7E"/>
<path d="M480.428 510.268H486.396V534.141L483.412 546.077H477.444V540.109L465.508 537.125L468.492 525.189L480.428 510.268Z" fill="#C2C2C2"/>
<path d="M519.22 596.805L528.173 599.789L537.125 617.693V632.613L531.157 626.645L513.252 620.677L519.22 596.805Z" fill="#252525"/>
<path d="M196.945 337.195L208.882 349.131L202.914 355.099L214.85 361.067L217.834 375.987L211.866 381.955L208.882 373.003L193.961 375.987L196.945 337.195Z" fill="#7D7D7D"/>
<path d="M802.703 486.396H805.687L802.703 516.236L796.735 522.204L781.814 510.268L787.783 498.332L802.703 486.396Z" fill="#949494"/>
<path d="M346.147 182.026L367.035 199.93L373.003 205.898L370.019 226.786L358.083 211.866L346.147 190.978V182.026Z" fill="#464646"/>
<path d="M101.457 525.189L116.377 531.157L146.217 534.141V537.125L122.345 543.093L107.425 546.077L101.457 534.141V525.189Z" fill="#0B0B0B"/>
<path d="M238.722 301.387H265.578L253.642 310.339L247.674 322.275L229.77 310.339L238.722 301.387Z" fill="#CFCFCF"/>
<path d="M104.441 456.556L116.377 462.524L134.281 471.476L128.313 483.412L116.377 477.444L104.441 462.524V456.556Z" fill="#0B0B0B"/>
<path d="M486.396 510.268L498.332 513.252L501.316 528.173L492.364 537.125L483.412 534.141L486.396 510.268Z" fill="#969696"/>
<path d="M164.122 453.572L179.042 456.556L176.058 471.476L155.169 468.492V459.54L164.122 453.572Z" fill="#6A6A6A"/>
<path d="M229.77 310.339L265.578 328.243V331.227H241.706L229.77 319.291V310.339Z" fill="#A4A4A4"/>
<path d="M304.371 164.121H325.259L319.291 176.057L283.482 173.073L292.434 167.105L304.371 164.121Z" fill="#686868"/>
<path d="M847.463 590.837L853.431 593.821L841.495 608.741L814.639 623.661L808.671 620.677L841.495 596.805L847.463 590.837Z" fill="#3E3E3E"/>
<path d="M116.377 623.661L125.329 626.645L137.265 647.534L122.345 644.55L113.393 638.582L116.377 623.661Z" fill="#787878"/>
<path d="M522.205 390.907L528.173 396.875L540.109 432.684L531.157 435.668L522.205 405.827V390.907Z" fill="#2D2D2D"/>
<path d="M170.089 534.141H185.009L190.978 543.093H158.153L149.201 537.125L170.089 534.141Z" fill="#1D1D1D"/>
<path d="M728.102 453.572V462.524L713.182 477.444L707.214 480.428L704.23 465.508L728.102 453.572Z" fill="#272727"/>
<path d="M522.205 429.7L528.173 435.668L540.109 468.492V477.444L522.205 450.588V429.7Z" fill="#2F2F2F"/>
<path d="M128.313 462.524L146.217 465.508L170.089 468.492V471.476L140.249 474.46H131.297L128.313 462.524Z" fill="#8E8E8E"/>
<path d="M757.943 495.348L763.911 498.332L743.022 516.236L734.07 513.252L737.054 504.3L757.943 495.348Z" fill="#858585"/>
<path d="M226.786 378.971L232.754 381.955L226.786 396.875L214.85 393.891V381.955L226.786 378.971Z" fill="#636363"/>
<path d="M226.786 307.355L232.754 319.291L223.802 325.259L217.834 340.179H214.85V322.275L226.786 307.355Z" fill="#595959"/>
<path d="M465.508 566.965H480.428V581.885L465.508 578.901V566.965Z" fill="#CCCCCC"/>
<path d="M161.137 546.077H173.073V552.045L161.137 558.013H137.265L149.201 552.045L161.137 546.077Z" fill="#E3E3E3"/>
<path d="M110.409 495.348L119.361 498.332L107.425 504.3L104.441 516.236H98.4727L104.441 498.332L110.409 495.348Z" fill="#A8A8A8"/>
</g>
</svg>
