<svg width="70" height="70" viewBox="0 0 70 70" fill="none" xmlns="http://www.w3.org/2000/svg">
<g clip-path="url(#clip0_675_400)">
<path d="M49.4407 26.1101C49.1957 26.3551 48.8667 26.4951 48.5237 26.4951H16.0087C14.8607 26.4951 14.2797 25.0951 15.0777 24.2621L20.4117 18.7391C20.6567 18.4871 20.9927 18.3401 21.3427 18.3401H53.9767C55.1317 18.3401 55.7127 19.7541 54.8937 20.5871L49.4407 26.1101ZM49.4407 50.7921C49.1957 51.0301 48.8667 51.1701 48.5237 51.1701H16.0087C14.8607 51.1701 14.2797 49.8052 15.0777 48.9932L20.4117 43.6032C20.6567 43.3582 20.9927 43.2182 21.3427 43.2182H53.9767C55.1317 43.2182 55.7127 44.5971 54.8937 45.4091L49.4407 50.7921ZM48.5237 30.7791C48.8667 30.7791 49.1957 30.9121 49.4407 31.1571L54.8937 36.5471C55.7127 37.3521 55.1317 38.7382 53.9767 38.7382H21.3427C20.9927 38.7382 20.6567 38.5982 20.4117 38.3532L15.0777 32.9631C14.2727 32.1511 14.8537 30.7861 16.0087 30.7861L48.5237 30.7791Z" fill="#00FFAD"/>
<path d="M35 0C54.327 0 70 15.673 70 35C70 54.327 54.327 70 35 70C15.673 70 0 54.327 0 35C0 15.673 15.673 0 35 0Z" fill="black"/>
<path fill-rule="evenodd" clip-rule="evenodd" d="M16.184 31.6608H48.573C48.979 31.6608 49.364 31.8218 49.644 32.1088L54.768 37.2678C55.713 38.2198 55.041 39.8438 53.697 39.8438H21.308C20.902 39.8438 20.517 39.6828 20.237 39.3958L15.113 34.2368C14.161 33.2848 14.84 31.6608 16.184 31.6608ZM15.113 24.8218L20.237 19.6628C20.524 19.3758 20.909 19.2148 21.308 19.2148H53.69C55.034 19.2148 55.713 20.8388 54.761 21.7908L49.644 26.9498C49.357 27.2368 48.972 27.3978 48.573 27.3978H16.184C14.84 27.3978 14.161 25.7738 15.113 24.8218ZM54.761 46.6828L49.637 51.8418C49.35 52.1288 48.965 52.2898 48.566 52.2898H16.184C14.84 52.2898 14.161 50.6658 15.113 49.7138L20.237 44.5548C20.524 44.2678 20.909 44.1068 21.308 44.1068H53.69C55.034 44.1068 55.713 45.7308 54.761 46.6828Z" fill="url(#paint0_linear_675_400)"/>
</g>
<defs>
<linearGradient id="paint0_linear_675_400" x1="16.9764" y1="53.7129" x2="52.8976" y2="17.7917" gradientUnits="userSpaceOnUse">
<stop stop-color="#CB4EE8"/>
<stop offset="1" stop-color="#10F4B1"/>
</linearGradient>
<clipPath id="clip0_675_400">
<rect width="70" height="70" fill="white"/>
</clipPath>
</defs>
</svg>
