<svg width="70" height="70" viewBox="0 0 70 70" fill="none" xmlns="http://www.w3.org/2000/svg">
<rect width="70" height="70" rx="35" fill="white" fill-opacity="0.02"/>
<rect x="1" y="1" width="68" height="68" rx="34" stroke="white" stroke-opacity="0.07" stroke-width="2"/>
<path d="M15.7316 34.2284C25.9097 29.7008 32.6968 26.7158 36.0927 25.2737C45.7887 21.156 47.8034 20.4407 49.1166 20.4169C49.4054 20.4119 50.0512 20.485 50.4695 20.8316C50.8227 21.1242 50.9199 21.5195 50.9664 21.797C51.0129 22.0744 51.0708 22.7064 51.0248 23.2003C50.4994 28.8371 48.2259 42.516 47.0692 48.8293C46.5798 51.5007 45.6161 52.3964 44.6832 52.4841C42.6556 52.6746 41.116 51.116 39.1523 49.8016C36.0794 47.745 34.3434 46.4647 31.3606 44.4578C27.9135 42.1385 30.1481 40.8637 32.1126 38.7804C32.6267 38.2352 41.5601 29.9389 41.733 29.1863C41.7546 29.0921 41.7747 28.7413 41.5705 28.556C41.3664 28.3707 41.0651 28.4341 40.8476 28.4845C40.5394 28.5559 35.6304 31.8688 26.1207 38.4231C24.7273 39.4 23.4652 39.876 22.3344 39.851C21.0878 39.8235 18.6898 39.1314 16.9071 38.5397C14.7206 37.814 12.9829 37.4303 13.1342 36.1979C13.213 35.556 14.0788 34.8995 15.7316 34.2284Z" fill="white"/>
</svg>
